<svg width="7" height="8" viewBox="0 0 7 8" fill="none" xmlns="http://www.w3.org/2000/svg">
<path d="M4.03809 0C4.48343 0 4.8457 0.336459 4.8457 0.75V1H6.32715C6.69808 1.00021 7 1.28051 7 1.625V2.5C6.99998 2.63805 6.87914 2.75 6.73047 2.75H6.58301L6.35059 7.28516C6.33006 7.68571 5.9758 8 5.54395 8H1.45605C1.02422 8 0.669959 7.68571 0.649414 7.28516L0.416016 2.75H0.269531C0.120865 2.75 1.89891e-05 2.63805 0 2.5V1.625C0 1.28044 0.301822 1.0001 0.672852 1H2.15332V0.75C2.15332 0.336459 2.51657 0 2.96191 0H4.03809ZM1.18652 7.26172C1.19335 7.39523 1.3121 7.5 1.45605 7.5H5.54395C5.68788 7.5 5.80565 7.39523 5.8125 7.26172L6.04395 2.75H0.955078L1.18652 7.26172ZM2.15332 3.25C2.302 3.25 2.42285 3.36194 2.42285 3.5V6.75C2.42273 6.88796 2.30192 7 2.15332 7C2.0049 6.99979 1.88489 6.88783 1.88477 6.75V3.5C1.88477 3.36207 2.00484 3.25021 2.15332 3.25ZM3.5 3.25C3.64865 3.25003 3.76953 3.36196 3.76953 3.5V6.75C3.76941 6.88794 3.64857 6.99997 3.5 7C3.35138 7 3.23059 6.88796 3.23047 6.75V3.5C3.23047 3.36194 3.35132 3.25 3.5 3.25ZM4.8457 3.25C4.99438 3.25 5.11523 3.36194 5.11523 3.5V6.75C5.11511 6.88796 4.9943 7 4.8457 7C4.69728 6.99979 4.57727 6.88783 4.57715 6.75V3.5C4.57715 3.36207 4.69722 3.25021 4.8457 3.25ZM0.672852 1.5C0.598783 1.50017 0.539062 1.55618 0.539062 1.625V2.25H6.46191V1.625C6.46191 1.55617 6.40124 1.50015 6.32715 1.5H0.672852ZM2.96094 0.5C2.81273 0.500213 2.69245 0.61234 2.69238 0.75V1H4.30762V0.75C4.30755 0.612208 4.18649 0.5 4.03809 0.5H2.96094Z" fill="#ABABAB"/>
</svg>
