<svg width="14" height="14" viewBox="0 0 14 14" fill="none" xmlns="http://www.w3.org/2000/svg">
<rect width="14" height="14" rx="2" fill="#F06548"/>
<path fill-rule="evenodd" clip-rule="evenodd" d="M4.54071 4.43158L4.92282 10.1781C4.92858 10.2637 4.97064 10.3442 5.04043 10.403C5.11021 10.4619 5.20246 10.4947 5.29835 10.4947H8.70165C8.79754 10.4947 8.88979 10.4619 8.95958 10.403C9.02936 10.3442 9.07142 10.2637 9.07718 10.1781L9.45929 4.43158H4.54071ZM10.0254 4.43158L9.64094 10.208C9.62667 10.4223 9.5215 10.6235 9.34692 10.7707C9.17234 10.9179 8.94153 11 8.70165 11H5.29835C5.05847 11 4.82766 10.9179 4.65308 10.7707C4.4785 10.6235 4.37333 10.4223 4.35906 10.208L3.97459 4.43158H3V4.13684C3 4.08101 3.02479 4.02746 3.06892 3.98798C3.11304 3.9485 3.17289 3.92632 3.23529 3.92632H10.7647C10.8271 3.92632 10.887 3.9485 10.9311 3.98798C10.9752 4.02746 11 4.08101 11 4.13684V4.43158H10.0254ZM7.94118 3C8.00358 3 8.06343 3.02218 8.10755 3.06166C8.15168 3.10114 8.17647 3.15469 8.17647 3.21053V3.50526H5.82353V3.21053C5.82353 3.15469 5.84832 3.10114 5.89245 3.06166C5.93657 3.02218 5.99642 3 6.05882 3H7.94118ZM5.82353 5.52632H6.38824L6.62353 9.31579H6.05882L5.82353 5.52632ZM7.61176 5.52632H8.17647L7.94118 9.31579H7.37647L7.61176 5.52632Z" fill="white"/>
</svg>
