<svg width="14" height="14" viewBox="0 0 14 14" fill="none" xmlns="http://www.w3.org/2000/svg">
<circle cx="7" cy="7" r="7" fill="#ABABAB"/>
<path d="M9.89453 9.3894C9.98814 9.53103 9.97234 9.72369 9.84766 9.84839L9.79102 9.89526C9.66954 9.97559 9.51015 9.97558 9.38867 9.89526L9.33203 9.84839L7.05566 7.57104L4.77734 9.84839L4.7207 9.89526C4.59942 9.97536 4.44069 9.97521 4.31934 9.89526L4.26172 9.84839C4.19059 9.77724 4.15534 9.68362 4.15527 9.59058C4.15527 9.52072 4.17476 9.45016 4.21484 9.3894L4.26172 9.33276L6.53906 7.05444L4.26172 4.77808C4.19059 4.70687 4.15527 4.61335 4.15527 4.52026C4.15527 4.45034 4.17468 4.37989 4.21484 4.31909L4.26172 4.26245C4.40416 4.12 4.63486 4.12009 4.77734 4.26245L7.05566 6.53882L9.33203 4.26245C9.47452 4.11995 9.70519 4.12 9.84766 4.26245L9.89453 4.31909C9.98827 4.46073 9.97242 4.65332 9.84766 4.77808L7.57129 7.05444L9.84766 9.33276L9.89453 9.3894Z" fill="white" stroke="white" stroke-width="0.3"/>
</svg>
