<svg width="389" height="415" viewBox="0 0 389 415" fill="none" xmlns="http://www.w3.org/2000/svg">
<rect width="389" height="415" rx="16" fill="#AB7BFF"/>
<mask id="mask0_636_16573" style="mask-type:alpha" maskUnits="userSpaceOnUse" x="0" y="0" width="389" height="375">
<rect width="389" height="375" fill="#D9D9D9"/>
</mask>
<g mask="url(#mask0_636_16573)">
<circle opacity="0.4" cx="194.5" cy="148.5" r="224.5" fill="#8043EB"/>
<circle opacity="0.7" cx="194.5" cy="148.5" r="173.5" fill="#8043EB"/>
<circle cx="194.5" cy="148.5" r="125.5" fill="#8043EB"/>
</g>
<path d="M194.5 86C158.936 86 130 114.936 130 150.5C130 186.064 158.936 215 194.5 215C230.064 215 259 186.064 259 150.5C259 114.936 230.064 86 194.5 86ZM194.5 95.9231C224.701 95.9231 249.077 120.299 249.077 150.5C249.077 180.701 224.701 205.077 194.5 205.077C164.299 205.077 139.923 180.701 139.923 150.5C139.923 120.299 164.299 95.9231 194.5 95.9231ZM189.538 120.731V145.538H164.731V155.462H189.538V180.269H199.462V155.462H224.269V145.538H199.462V120.731H189.538Z" fill="white"/>
<path d="M294.945 283.158C294.945 277.637 296.332 273.422 301.666 273.422C306.974 273.422 308.361 277.637 308.361 283.158C308.361 288.759 306.974 293 301.666 293C296.332 293 294.945 288.759 294.945 283.158ZM305.96 283.158C305.96 279.157 305.454 275.636 301.666 275.636C297.852 275.636 297.345 279.157 297.345 283.158C297.345 287.319 297.852 290.786 301.666 290.786C305.454 290.786 305.96 287.319 305.96 283.158Z" fill="white"/>
<path d="M277.908 280.197C275.535 280.197 273.561 281.771 273.294 284.625H282.523C282.549 281.771 280.416 280.197 277.908 280.197ZM284.737 288.492C283.99 291.16 281.643 293.24 278.015 293.24C273.854 293.24 270.787 290.306 270.787 285.665C270.787 281.051 273.748 278.143 278.015 278.143C282.256 278.143 285.03 281.131 285.03 285.132C285.03 285.665 285.003 286.092 284.95 286.599H273.267C273.454 289.559 275.535 291.186 278.015 291.186C280.202 291.186 281.589 290.066 282.123 288.492H284.737Z" fill="white"/>
<path d="M252.762 285.638C252.762 281.077 255.776 278.144 259.724 278.144C262.018 278.144 264.125 279.317 265.138 280.997V273.262H267.592V293H265.138V290.253C264.258 291.88 262.364 293.24 259.697 293.24C255.776 293.24 252.762 290.173 252.762 285.638ZM265.138 285.665C265.138 282.278 262.844 280.251 260.177 280.251C257.51 280.251 255.243 282.198 255.243 285.638C255.243 289.079 257.51 291.106 260.177 291.106C262.844 291.106 265.138 289.106 265.138 285.665Z" fill="white"/>
<path d="M250.243 289.026C250.243 291.426 248.136 293.24 244.908 293.24C241.494 293.24 239.094 291.373 238.934 288.706H241.441C241.574 290.119 242.828 291.186 244.882 291.186C246.802 291.186 247.869 290.226 247.869 289.026C247.869 285.772 239.227 287.665 239.227 282.224C239.227 279.984 241.334 278.143 244.588 278.143C247.816 278.143 249.949 279.877 250.109 282.731H247.682C247.575 281.264 246.455 280.197 244.508 280.197C242.721 280.197 241.654 281.051 241.654 282.224C241.654 285.692 250.136 283.798 250.243 289.026Z" fill="white"/>
<path d="M229.408 280.197C227.035 280.197 225.061 281.771 224.794 284.625H234.023C234.049 281.771 231.916 280.197 229.408 280.197ZM236.237 288.492C235.49 291.16 233.143 293.24 229.515 293.24C225.354 293.24 222.287 290.306 222.287 285.665C222.287 281.051 225.248 278.143 229.515 278.143C233.756 278.143 236.53 281.131 236.53 285.132C236.53 285.665 236.503 286.092 236.45 286.599H224.767C224.954 289.559 227.035 291.186 229.515 291.186C231.702 291.186 233.089 290.066 233.623 288.492H236.237Z" fill="white"/>
<path d="M204.262 285.638C204.262 281.077 207.276 278.144 211.224 278.144C213.518 278.144 215.625 279.317 216.638 280.997V273.262H219.092V293H216.638V290.253C215.758 291.88 213.864 293.24 211.197 293.24C207.276 293.24 204.262 290.173 204.262 285.638ZM216.638 285.665C216.638 282.278 214.344 280.251 211.677 280.251C209.01 280.251 206.743 282.198 206.743 285.638C206.743 289.079 209.01 291.106 211.677 291.106C214.344 291.106 216.638 289.106 216.638 285.665Z" fill="white"/>
<path d="M194.867 285.665C194.867 290.306 191.533 293.24 187.372 293.24C183.238 293.24 180.09 290.306 180.09 285.665C180.09 281.051 183.344 278.143 187.479 278.143C191.639 278.143 194.867 281.051 194.867 285.665ZM182.571 285.665C182.571 289.373 184.838 291.106 187.372 291.106C189.906 291.106 192.386 289.373 192.386 285.665C192.386 281.984 189.959 280.251 187.452 280.251C184.891 280.251 182.571 281.984 182.571 285.665Z" fill="white"/>
<path d="M171.815 288.999V280.384H169.921V278.384H171.815V274.703H174.242V278.384H178.056V280.384H174.242V288.999C174.242 290.439 174.776 290.946 176.269 290.946H178.056V293H175.869C173.282 293 171.815 291.933 171.815 288.999Z" fill="white"/>
<path d="M154.173 285.665C154.173 281.077 157.134 278.143 161.295 278.143C164.922 278.143 167.296 280.011 168.043 283.078H165.429C164.922 281.317 163.455 280.197 161.295 280.197C158.628 280.197 156.654 282.091 156.654 285.665C156.654 289.293 158.628 291.186 161.295 291.186C163.455 291.186 164.896 290.146 165.429 288.306H168.043C167.296 291.213 164.922 293.24 161.295 293.24C157.134 293.24 154.173 290.306 154.173 285.665Z" fill="white"/>
<path d="M144.755 280.197C142.381 280.197 140.407 281.771 140.141 284.625H149.369C149.396 281.771 147.262 280.197 144.755 280.197ZM151.583 288.492C150.836 291.16 148.489 293.24 144.862 293.24C140.701 293.24 137.633 290.306 137.633 285.665C137.633 281.051 140.594 278.143 144.862 278.143C149.102 278.143 151.876 281.131 151.876 285.132C151.876 285.665 151.85 286.092 151.796 286.599H140.114C140.301 289.559 142.381 291.186 144.862 291.186C147.049 291.186 148.436 290.066 148.969 288.492H151.583Z" fill="white"/>
<path d="M129.059 290.226L133.593 278.384H136.1L127.298 299.882H124.791L127.672 292.84L121.777 278.384H124.471L129.059 290.226Z" fill="white"/>
<path d="M120.319 285.665C120.319 290.306 116.985 293.24 112.825 293.24C108.69 293.24 105.543 290.306 105.543 285.665C105.543 281.051 108.797 278.143 112.931 278.143C117.092 278.143 120.319 281.051 120.319 285.665ZM108.024 285.665C108.024 289.373 110.291 291.106 112.825 291.106C115.358 291.106 117.839 289.373 117.839 285.665C117.839 281.984 115.412 280.251 112.905 280.251C110.344 280.251 108.024 281.984 108.024 285.665Z" fill="white"/>
<path d="M98.9269 285.052V293H96.4998V278.384H98.9269V280.757C99.7538 279.13 101.327 278.117 103.648 278.117V280.624H103.008C100.687 280.624 98.9269 281.664 98.9269 285.052Z" fill="white"/>
<path d="M83.4809 283.238H87.055C89.8289 283.238 91.0025 281.931 91.0025 279.85C91.0025 277.69 89.8289 276.41 87.055 276.41H83.4809V283.238ZM93.4831 279.85C93.4831 282.678 91.6693 285.238 87.055 285.238H83.4809V293H81.0537V274.409H87.055C91.4293 274.409 93.4831 276.81 93.4831 279.85Z" fill="white"/>
</svg>
