<svg width="389" height="415" viewBox="0 0 389 415" fill="none" xmlns="http://www.w3.org/2000/svg">
<rect width="389" height="415" rx="16" fill="#7BB0FF"/>
<mask id="mask0_636_16574" style="mask-type:alpha" maskUnits="userSpaceOnUse" x="0" y="0" width="389" height="368">
<rect width="389" height="368" fill="#D9D9D9"/>
</mask>
<g mask="url(#mask0_636_16574)">
<circle opacity="0.4" cx="194.5" cy="140.5" r="224.5" fill="#4386EB"/>
<circle opacity="0.7" cx="194.5" cy="140.5" r="173.5" fill="#4386EB"/>
<circle cx="194.5" cy="140.5" r="125.5" fill="#4386EB"/>
</g>
<path d="M326.083 288.999V280.384H324.189V278.384H326.083V274.703H328.51V278.384H332.324V280.384H328.51V288.999C328.51 290.439 329.043 290.946 330.537 290.946H332.324V293H330.137C327.55 293 326.083 291.933 326.083 288.999Z" fill="white"/>
<path d="M321.451 278.384V293H319.024V290.84C318.09 292.36 316.303 293.213 314.356 293.213C310.995 293.213 308.355 291.133 308.355 286.945V278.384H310.755V286.625C310.755 289.586 312.382 291.106 314.836 291.106C317.343 291.106 319.024 289.559 319.024 286.412V278.384H321.451Z" fill="white"/>
<path d="M305.297 285.665C305.297 290.306 301.963 293.24 297.802 293.24C293.668 293.24 290.52 290.306 290.52 285.665C290.52 281.051 293.774 278.143 297.909 278.143C302.069 278.143 305.297 281.051 305.297 285.665ZM293.001 285.665C293.001 289.373 295.268 291.106 297.802 291.106C300.336 291.106 302.816 289.373 302.816 285.665C302.816 281.984 300.389 280.251 297.882 280.251C295.321 280.251 293.001 281.984 293.001 285.665Z" fill="white"/>
<path d="M281.946 290.226L286.48 278.384H288.987L280.186 299.882H277.678L280.559 292.84L274.664 278.384H277.358L281.946 290.226Z" fill="white"/>
<path d="M257.466 285.638C257.466 281.077 260.48 278.143 264.401 278.143C267.122 278.143 268.989 279.53 269.842 281.051V278.383H272.296V293H269.842V290.279C268.962 291.853 267.068 293.24 264.374 293.24C260.48 293.24 257.466 290.173 257.466 285.638ZM269.842 285.665C269.842 282.278 267.548 280.251 264.881 280.251C262.214 280.251 259.947 282.198 259.947 285.638C259.947 289.079 262.214 291.106 264.881 291.106C267.548 291.106 269.842 289.106 269.842 285.665Z" fill="white"/>
<path d="M251.809 293V273.262H254.237V293H251.809Z" fill="white"/>
<path d="M238.333 293V284.732C238.333 281.744 236.706 280.224 234.252 280.224C231.772 280.224 230.065 281.771 230.065 284.918V293H227.637V278.384H230.065V280.464C231.025 278.944 232.785 278.117 234.759 278.117C238.146 278.117 240.734 280.197 240.734 284.385V293H238.333Z" fill="white"/>
<path d="M223.539 278.384V293H221.112V290.84C220.179 292.36 218.391 293.213 216.444 293.213C213.084 293.213 210.443 291.133 210.443 286.945V278.384H212.844V286.625C212.844 289.586 214.471 291.106 216.925 291.106C219.432 291.106 221.112 289.559 221.112 286.412V278.384H223.539Z" fill="white"/>
<path d="M184.534 285.638C184.534 281.077 187.548 278.143 191.469 278.143C194.189 278.143 196.056 279.53 196.91 281.051V278.383H199.364V293H196.91V290.279C196.03 291.853 194.136 293.24 191.442 293.24C187.548 293.24 184.534 290.173 184.534 285.638ZM196.91 285.665C196.91 282.278 194.616 280.251 191.949 280.251C189.282 280.251 187.014 282.198 187.014 285.638C187.014 289.079 189.282 291.106 191.949 291.106C194.616 291.106 196.91 289.106 196.91 285.665Z" fill="white"/>
<path d="M179.076 293V284.732C179.076 281.744 177.448 280.224 174.995 280.224C172.514 280.224 170.807 281.771 170.807 284.918V293H168.38V278.384H170.807V280.464C171.767 278.944 173.528 278.117 175.501 278.117C178.889 278.117 181.476 280.197 181.476 284.385V293H179.076Z" fill="white"/>
<path d="M165.189 285.665C165.189 290.306 161.855 293.24 157.694 293.24C153.559 293.24 150.412 290.306 150.412 285.665C150.412 281.051 153.666 278.143 157.8 278.143C161.961 278.143 165.189 281.051 165.189 285.665ZM152.893 285.665C152.893 289.373 155.16 291.106 157.694 291.106C160.228 291.106 162.708 289.373 162.708 285.665C162.708 281.984 160.281 280.251 157.774 280.251C155.213 280.251 152.893 281.984 152.893 285.665Z" fill="white"/>
<path d="M144.755 293V278.383H147.182V293H144.755ZM146.009 276.01C145.075 276.01 144.355 275.289 144.355 274.356C144.355 273.422 145.075 272.702 146.009 272.702C146.889 272.702 147.609 273.422 147.609 274.356C147.609 275.289 146.889 276.01 146.009 276.01Z" fill="white"/>
<path d="M127.647 285.665C127.647 281.077 130.607 278.143 134.768 278.143C138.396 278.143 140.77 280.011 141.516 283.078H138.902C138.396 281.317 136.929 280.197 134.768 280.197C132.101 280.197 130.127 282.091 130.127 285.665C130.127 289.293 132.101 291.186 134.768 291.186C136.929 291.186 138.369 290.146 138.902 288.306H141.516C140.77 291.213 138.396 293.24 134.768 293.24C130.607 293.24 127.647 290.306 127.647 285.665Z" fill="white"/>
<path d="M111.445 285.665C111.445 281.077 114.406 278.143 118.567 278.143C122.194 278.143 124.568 280.011 125.315 283.078H122.701C122.194 281.317 120.727 280.197 118.567 280.197C115.9 280.197 113.926 282.091 113.926 285.665C113.926 289.293 115.9 291.186 118.567 291.186C120.727 291.186 122.168 290.146 122.701 288.306H125.315C124.568 291.213 122.194 293.24 118.567 293.24C114.406 293.24 111.445 290.306 111.445 285.665Z" fill="white"/>
<path d="M102.027 280.197C99.653 280.197 97.6792 281.771 97.4125 284.625H106.641C106.668 281.771 104.534 280.197 102.027 280.197ZM108.855 288.492C108.108 291.16 105.761 293.24 102.133 293.24C97.9726 293.24 94.9053 290.306 94.9053 285.665C94.9053 281.051 97.8659 278.143 102.133 278.143C106.374 278.143 109.148 281.131 109.148 285.132C109.148 285.665 109.122 286.092 109.068 286.599H97.3858C97.5725 289.559 99.653 291.186 102.133 291.186C104.321 291.186 105.708 290.066 106.241 288.492H108.855Z" fill="white"/>
<path d="M89.2483 293V273.262H91.6755V293H89.2483Z" fill="white"/>
<path d="M78.9228 280.197C76.549 280.197 74.5752 281.771 74.3085 284.625H83.5371C83.5638 281.771 81.43 280.197 78.9228 280.197ZM85.7509 288.492C85.0041 291.16 82.6569 293.24 79.0295 293.24C74.8686 293.24 71.8013 290.306 71.8013 285.665C71.8013 281.051 74.7619 278.143 79.0295 278.143C83.2704 278.143 86.0443 281.131 86.0443 285.132C86.0443 285.665 86.0177 286.092 85.9643 286.599H74.2818C74.4685 289.559 76.549 291.186 79.0295 291.186C81.2166 291.186 82.6036 290.066 83.137 288.492H85.7509Z" fill="white"/>
<path d="M69.1363 287.932C69.1363 290.573 66.9759 293.187 62.9483 293.187C59.2142 293.187 56.5736 291.106 56.5203 288.039H59.1075C59.2675 289.586 60.3611 291.133 62.9483 291.133C65.2955 291.133 66.6825 289.799 66.6825 288.039C66.6825 283.025 56.627 286.225 56.627 279.317C56.627 276.25 59.1075 274.169 62.7883 274.169C66.3357 274.169 68.6562 276.116 68.9496 278.944H66.2824C66.1223 277.69 64.9487 276.276 62.6816 276.25C60.6812 276.196 59.1075 277.237 59.1075 279.237C59.1075 284.038 69.1363 281.051 69.1363 287.932Z" fill="white"/>
<path d="M177.333 139.222V198.111M245.056 136.278H144.944M142 135.689C142 122.498 142 115.902 144.568 110.861C146.826 106.429 150.429 102.826 154.861 100.568C159.902 98 166.498 98 179.689 98H210.311C223.502 98 230.098 98 235.139 100.568C239.571 102.826 243.174 106.429 245.432 110.861C248 115.902 248 122.498 248 135.689V166.311C248 179.502 248 186.098 245.432 191.139C243.174 195.571 239.571 199.174 235.139 201.432C230.098 204 223.502 204 210.311 204H179.689C166.498 204 159.902 204 154.861 201.432C150.429 199.174 146.826 195.571 144.568 191.139C142 186.098 142 179.502 142 166.311V135.689Z" stroke="white" stroke-width="10" stroke-linecap="round" stroke-linejoin="round"/>
</svg>
