<svg width="130" height="30" viewBox="0 0 130 30" fill="none" xmlns="http://www.w3.org/2000/svg">
<path d="M14.162 0.578949H21.2783L11.3158 19.0614H26.0263L29.1696 24.7193H0L14.162 0.578949Z" fill="#8043EB"/>
<path d="M36.7674 6.56359H39.5584L36.9388 21.449H42.6922L42.3005 23.5789H33.7561L36.7674 6.56359ZM44.9039 16.7728C45.6383 12.6108 48.9435 9.86873 52.4934 9.86873C54.7703 9.86873 56.1413 10.946 56.7779 12.0477L57.1206 10.0891H59.9361L57.5613 23.5789H54.7458L55.1131 21.5714C54.0603 22.7221 52.2486 23.7993 49.9962 23.7993C46.4952 23.7993 44.1694 20.9348 44.9039 16.7728ZM55.9455 16.8218C56.4596 13.9328 54.7703 12.2925 52.6648 12.2925C50.5838 12.2925 48.2824 13.8594 47.7683 16.7728C47.2542 19.6862 48.9679 21.3755 51.049 21.3755C53.1545 21.3755 55.4313 19.7352 55.9455 16.8218ZM64.9975 23.3586L62.0106 10.0891H65.1199L67.103 20.3717L72.8564 10.0891H75.7453L63.9937 29.9199H61.1048L64.9975 23.3586ZM89.6522 15.5732C89.6522 20.2004 86.0288 23.7993 81.3771 23.7993C77.925 23.7993 75.6237 21.4979 75.6237 18.1193C75.6237 13.5411 79.1002 9.86873 83.8008 9.86873C87.2529 9.86873 89.6522 12.1701 89.6522 15.5732ZM78.5126 17.9969C78.5126 20.2738 79.9081 21.449 81.7198 21.449C84.6088 21.449 86.7632 18.7314 86.7632 15.7445C86.7632 13.3942 85.2208 12.2191 83.4091 12.2191C80.4712 12.2191 78.5126 14.9611 78.5126 17.9969ZM105.681 10.0891L103.306 23.5789H100.515L100.784 21.9876C99.707 23.1138 98.0912 23.7748 96.4998 23.7748C93.3416 23.7748 91.285 21.7917 91.9461 18.0214L93.3416 10.0891H96.1081L94.786 17.6052C94.3698 20.0779 95.4716 21.351 97.5036 21.351C99.5112 21.351 101.078 20.1269 101.543 17.7766L102.89 10.0891H105.681ZM108.09 19.8331L109.412 12.366H107.821L108.213 10.0891H109.828L110.416 6.73497H113.232L112.644 10.0891H115.9L115.508 12.366H112.228L110.906 19.8331C110.734 20.8369 111.053 21.2531 112.228 21.2531H113.942L113.525 23.5789H111.322C108.923 23.5789 107.625 22.5752 108.09 19.8331ZM126.674 19.8576C126.674 22.3059 124.275 23.7993 121.068 23.7993C118.032 23.7993 115.73 22.0121 116.098 19.4414H118.815C118.693 20.6655 119.599 21.5959 121.239 21.5959C122.708 21.5959 123.932 21.1062 123.932 19.9555C123.932 17.5562 117.224 18.1928 117.224 13.8349C117.224 11.4601 119.403 9.86873 122.561 9.86873C125.621 9.86873 127.751 11.607 127.433 14.2021H124.789C124.911 12.929 124.006 12.0722 122.39 12.0722C120.994 12.0722 120.039 12.7087 120.039 13.7125C120.039 16.2587 126.674 15.6711 126.674 19.8576Z" fill="#636363"/>
</svg>
