<svg width="13" height="13" viewBox="0 0 13 13" fill="none" xmlns="http://www.w3.org/2000/svg">
<path fill-rule="evenodd" clip-rule="evenodd" d="M9.51743 8.69309L12.0158 11.1909L11.1904 12.0163L8.6926 9.51792C7.7632 10.263 6.60718 10.6682 5.41602 10.6665C2.51802 10.6665 0.166016 8.3145 0.166016 5.4165C0.166016 2.5185 2.51802 0.166504 5.41602 0.166504C8.31402 0.166504 10.666 2.5185 10.666 5.4165C10.6677 6.60789 10.2624 7.76389 9.5173 8.69326L9.51743 8.69309ZM8.34661 8.26009C9.08693 7.49877 9.50037 6.47826 9.4987 5.41634C9.4987 3.16001 7.67111 1.33301 5.41536 1.33301C3.15903 1.33301 1.33203 3.16001 1.33203 5.41634C1.33203 7.67209 3.15903 9.49967 5.41536 9.49967C6.47728 9.50135 7.4978 9.08791 8.25911 8.34759L8.34661 8.26009Z" fill="#878A99"/>
</svg>
