<svg width="16" height="13" viewBox="0 0 16 13" fill="none" xmlns="http://www.w3.org/2000/svg">
<path d="M7 12.7334C7 12.7334 6 12.7334 6 11.7334C6 10.7334 7 7.73337 11 7.73337C15 7.73337 16 10.7334 16 11.7334C16 12.7334 15 12.7334 15 12.7334H7ZM11 6.73337C11.7956 6.73337 12.5587 6.4173 13.1213 5.85469C13.6839 5.29208 14 4.52902 14 3.73337C14 2.93772 13.6839 2.17466 13.1213 1.61205C12.5587 1.04944 11.7956 0.733368 11 0.733368C10.2044 0.733368 9.44129 1.04944 8.87868 1.61205C8.31607 2.17466 8 2.93772 8 3.73337C8 4.52902 8.31607 5.29208 8.87868 5.85469C9.44129 6.4173 10.2044 6.73337 11 6.73337ZM5.216 12.7334C5.06782 12.4212 4.9939 12.0789 5 11.7334C5 10.3784 5.68 8.98337 6.936 8.01337C6.30918 7.8198 5.65598 7.72533 5 7.73337C1 7.73337 0 10.7334 0 11.7334C0 12.7334 1 12.7334 1 12.7334H5.216ZM4.5 6.73337C5.16304 6.73337 5.79893 6.46998 6.26777 6.00113C6.73661 5.53229 7 4.89641 7 4.23337C7 3.57033 6.73661 2.93444 6.26777 2.4656C5.79893 1.99676 5.16304 1.73337 4.5 1.73337C3.83696 1.73337 3.20107 1.99676 2.73223 2.4656C2.26339 2.93444 2 3.57033 2 4.23337C2 4.89641 2.26339 5.53229 2.73223 6.00113C3.20107 6.46998 3.83696 6.73337 4.5 6.73337Z" fill="white"/>
</svg>
