<svg width="16" height="17" viewBox="0 0 16 17" fill="none" xmlns="http://www.w3.org/2000/svg">
<path fill-rule="evenodd" clip-rule="evenodd" d="M8.47777 0.200552C8.35234 0.0722962 8.18052 0 8.00113 0C7.82174 0 7.64992 0.0722962 7.5245 0.200552L0.190049 7.70055C0.00246933 7.89237 -0.0518529 8.17794 0.052198 8.42522C0.156249 8.67251 0.398397 8.83334 0.666685 8.83334H1.6299V14C1.6299 14.6141 1.86832 15.206 2.29731 15.6446C2.72679 16.0838 3.31249 16.3333 3.92644 16.3333H5.54923C5.55163 16.3334 5.55403 16.3334 5.55644 16.3334C5.55885 16.3334 5.56125 16.3334 5.56365 16.3333H10.4389C10.4413 16.3334 10.4437 16.3334 10.4461 16.3334C10.4485 16.3334 10.4509 16.3334 10.4533 16.3333H12.0758C12.6898 16.3333 13.2755 16.0838 13.705 15.6446C14.1339 15.206 14.3724 14.6141 14.3724 14V8.83334H15.3356C15.6039 8.83334 15.846 8.67251 15.9501 8.42522C16.0541 8.17794 15.9998 7.89237 15.8122 7.70055L8.47777 0.200552ZM11.1127 15H12.0758C12.3264 15 12.5698 14.8983 12.7517 14.7124C12.934 14.5259 13.039 14.27 13.039 14V8.16667C13.039 7.79848 13.3375 7.5 13.7057 7.5H13.7512L8.00113 1.62018L2.2511 7.5H2.29656C2.66475 7.5 2.96323 7.79848 2.96323 8.16667V14C2.96323 14.27 3.06824 14.526 3.25058 14.7124C3.43242 14.8983 3.67584 15 3.92644 15H4.88977V10.6667C4.88977 10.0526 5.1282 9.46075 5.55718 9.02208C5.98666 8.58291 6.57237 8.33337 7.18632 8.33337H8.81619C9.43014 8.33337 10.0158 8.58291 10.4453 9.02208C10.8743 9.46075 11.1127 10.0526 11.1127 10.6667V15ZM6.22311 15H9.77941V10.6667C9.77941 10.3968 9.67439 10.1408 9.49206 9.95431C9.31021 9.76836 9.06679 9.66671 8.81619 9.66671H7.18632C6.93572 9.66671 6.6923 9.76836 6.51046 9.95431C6.32812 10.1408 6.22311 10.3968 6.22311 10.6667V15Z" fill="white"/>
</svg>
