<svg width="129" height="129" viewBox="0 0 129 129" fill="none" xmlns="http://www.w3.org/2000/svg">
<path d="M64.5 0C28.9357 0 0 28.9357 0 64.5C0 100.064 28.9357 129 64.5 129C100.064 129 129 100.064 129 64.5C129 28.9357 100.064 0 64.5 0ZM64.5 9.92308C94.7009 9.92308 119.077 34.2991 119.077 64.5C119.077 94.7009 94.7009 119.077 64.5 119.077C34.2991 119.077 9.92308 94.7009 9.92308 64.5C9.92308 34.2991 34.2991 9.92308 64.5 9.92308ZM59.5385 34.7308V59.5385H34.7308V69.4615H59.5385V94.2692H69.4615V69.4615H94.2692V59.5385H69.4615V34.7308H59.5385Z" fill="white"/>
</svg>
