<svg width="116" height="116" viewBox="0 0 116 116" fill="none" xmlns="http://www.w3.org/2000/svg">
<path d="M40.3333 46.2222V105.111M108.056 43.2778H7.94444M5 42.6889C5 29.4978 5 22.9022 7.56756 17.8613C9.82587 13.4293 13.4293 9.82587 17.8613 7.56756C22.9022 5 29.4978 5 42.6889 5H73.3111C86.5022 5 93.0978 5 98.1387 7.56756C102.571 9.82587 106.174 13.4293 108.432 17.8613C111 22.9022 111 29.4978 111 42.6889V73.3111C111 86.5022 111 93.0978 108.432 98.1387C106.174 102.571 102.571 106.174 98.1387 108.432C93.0978 111 86.5022 111 73.3111 111H42.6889C29.4978 111 22.9022 111 17.8613 108.432C13.4293 106.174 9.82587 102.571 7.56756 98.1387C5 93.0978 5 86.5022 5 73.3111V42.6889Z" stroke="white" stroke-width="10" stroke-linecap="round" stroke-linejoin="round"/>
</svg>
