<svg width="40" height="40" viewBox="0 0 40 40" fill="none" xmlns="http://www.w3.org/2000/svg">
<path opacity="0.5" d="M20 0C31.0287 0 40 8.97289 40 20C40 31.0271 31.0287 40 20 40C8.97133 40 0 31.0287 0 20C1.45467e-07 8.97133 8.97133 1.45458e-07 20 0ZM20 3.09863C10.6817 3.09868 3.09864 10.6801 3.09863 20C3.09863 29.3199 10.6817 36.9013 20 36.9014C29.3199 36.9014 36.9014 29.3199 36.9014 20C36.9014 10.6801 29.3184 3.09863 20 3.09863ZM20 10.3896C20.8618 10.3896 21.5586 11.088 21.5586 11.9482V18.1816H27.792C28.6538 18.1816 29.3506 18.88 29.3506 19.7402C29.3506 20.6005 28.6538 21.2988 27.792 21.2988H21.5586V27.5322C21.5586 28.3925 20.8618 29.0908 20 29.0908C19.1382 29.0908 18.4414 28.3925 18.4414 27.5322V21.2988H12.208C11.3462 21.2988 10.6494 20.6005 10.6494 19.7402C10.6494 18.88 11.3462 18.1816 12.208 18.1816H18.4414V11.9482C18.4414 11.088 19.1382 10.3897 20 10.3896Z" fill="#7D889A"/>
</svg>
