<svg width="15" height="14" viewBox="0 0 15 14" fill="none" xmlns="http://www.w3.org/2000/svg">
<path d="M13.5947 6.50068C13.8268 6.54805 14.0014 6.75387 14.0014 6.99994C14.0014 7.24604 13.8268 7.45181 13.5947 7.49919L13.4925 7.50886L8.00892 7.50817V12.9924L7.99857 13.0953C7.95774 13.2938 7.80143 13.4502 7.60289 13.491L7.5 13.5013C7.35946 13.5013 7.2315 13.4441 7.13954 13.3522C7.07081 13.2833 7.02187 13.1944 7.00143 13.0953L6.99108 12.9924V7.50817L1.50755 7.50886C1.3672 7.50878 1.23967 7.45219 1.14778 7.36039C1.07886 7.29148 1.0294 7.2022 1.00898 7.10282L0.998623 6.99994C0.998636 6.71887 1.22651 6.49114 1.50755 6.49101L6.99108 6.49032V1.00748C6.99122 0.726438 7.21897 0.498576 7.5 0.498558C7.78107 0.498545 8.00877 0.726454 8.00892 1.00748V6.49032L13.4925 6.49101L13.5947 6.50068Z" fill="white" stroke="white" stroke-width="0.3"/>
</svg>
