<svg width="17" height="17" viewBox="0 0 17 17" fill="none" xmlns="http://www.w3.org/2000/svg">
<path d="M2.68421 0H14.3158C15.0277 0 15.7104 0.2828 16.2138 0.786187C16.7172 1.28957 17 1.97231 17 2.68421V14.3158C17 15.0277 16.7172 15.7104 16.2138 16.2138C15.7104 16.7172 15.0277 17 14.3158 17H2.68421C1.97231 17 1.28957 16.7172 0.786187 16.2138C0.2828 15.7104 0 15.0277 0 14.3158V2.68421C0 1.97231 0.2828 1.28957 0.786187 0.786187C1.28957 0.2828 1.97231 0 2.68421 0ZM2.68421 0.894737C2.20961 0.894737 1.75445 1.08327 1.41886 1.41886C1.08327 1.75445 0.894737 2.20961 0.894737 2.68421V13.0542L4.73316 9.20684L6.97 11.4437L11.4437 6.97L16.1053 11.6316V2.68421C16.1053 2.20961 15.9167 1.75445 15.5811 1.41886C15.2455 1.08327 14.7904 0.894737 14.3158 0.894737H2.68421ZM6.97 12.7142L4.73316 10.4774L0.894737 14.3158C0.894737 14.7904 1.08327 15.2455 1.41886 15.5811C1.75445 15.9167 2.20961 16.1053 2.68421 16.1053H14.3158C14.7904 16.1053 15.2455 15.9167 15.5811 15.5811C15.9167 15.2455 16.1053 14.7904 16.1053 14.3158V12.8932L11.4437 8.24053L6.97 12.7142ZM4.92105 2.68421C5.5143 2.68421 6.08325 2.91988 6.50274 3.33937C6.92223 3.75886 7.15789 4.32781 7.15789 4.92105C7.15789 5.5143 6.92223 6.08325 6.50274 6.50274C6.08325 6.92223 5.5143 7.15789 4.92105 7.15789C4.32781 7.15789 3.75886 6.92223 3.33937 6.50274C2.91988 6.08325 2.68421 5.5143 2.68421 4.92105C2.68421 4.32781 2.91988 3.75886 3.33937 3.33937C3.75886 2.91988 4.32781 2.68421 4.92105 2.68421ZM4.92105 3.57895C4.5651 3.57895 4.22373 3.72035 3.97204 3.97204C3.72035 4.22373 3.57895 4.5651 3.57895 4.92105C3.57895 5.277 3.72035 5.61837 3.97204 5.87006C4.22373 6.12176 4.5651 6.26316 4.92105 6.26316C5.277 6.26316 5.61837 6.12176 5.87006 5.87006C6.12176 5.61837 6.26316 5.277 6.26316 4.92105C6.26316 4.5651 6.12176 4.22373 5.87006 3.97204C5.61837 3.72035 5.277 3.57895 4.92105 3.57895Z" fill="#8043EB"/>
</svg>
