<svg width="17" height="17" viewBox="0 0 17 17" fill="none" xmlns="http://www.w3.org/2000/svg">
<path d="M6 6.83333V15.1667M15.5833 6.41667H1.41667M1 6.33333C1 4.46667 1 3.53333 1.36333 2.82C1.68291 2.19282 2.19282 1.68291 2.82 1.36333C3.53333 1 4.46667 1 6.33333 1H10.6667C12.5333 1 13.4667 1 14.18 1.36333C14.8072 1.68291 15.3171 2.19282 15.6367 2.82C16 3.53333 16 4.46667 16 6.33333V10.6667C16 12.5333 16 13.4667 15.6367 14.18C15.3171 14.8072 14.8072 15.3171 14.18 15.6367C13.4667 16 12.5333 16 10.6667 16H6.33333C4.46667 16 3.53333 16 2.82 15.6367C2.19282 15.3171 1.68291 14.8072 1.36333 14.18C1 13.4667 1 12.5333 1 10.6667V6.33333Z" stroke="#8043EB" stroke-linecap="round" stroke-linejoin="round"/>
</svg>
