<svg width="18" height="19" viewBox="0 0 18 19" fill="none" xmlns="http://www.w3.org/2000/svg">
<path d="M17 18C16.4933 8.08369 1.50667 8.08369 1 18M12.2 4.1875C12.2 5.03288 11.8629 5.84363 11.2627 6.4414C10.6626 7.03918 9.84869 7.375 9 7.375C8.15131 7.375 7.33737 7.03918 6.73726 6.4414C6.13714 5.84363 5.8 5.03288 5.8 4.1875C5.8 3.34212 6.13714 2.53137 6.73726 1.9336C7.33737 1.33583 8.15131 1 9 1C9.84869 1 10.6626 1.33583 11.2627 1.9336C11.8629 2.53137 12.2 3.34212 12.2 4.1875Z" stroke="#71717A" stroke-linecap="round" stroke-linejoin="round"/>
</svg>
