<svg width="22" height="21" viewBox="0 0 22 21" fill="none" xmlns="http://www.w3.org/2000/svg">
<mask id="path-1-outside-1_849_129" maskUnits="userSpaceOnUse" x="0" y="0" width="22" height="21" fill="black">
<rect fill="white" width="22" height="21"/>
<path d="M3.55762 1C3.59609 0.999979 3.63438 1.00751 3.66992 1.02148C3.70526 1.0354 3.73755 1.0554 3.76465 1.08105C3.79185 1.1069 3.81341 1.13811 3.82812 1.17188C3.84284 1.20564 3.85061 1.24178 3.85059 1.27832V2.07617H9.57422V1.27832C9.57422 1.20453 9.60523 1.13324 9.66016 1.08105C9.71503 1.02901 9.78965 1.00004 9.86719 1H12.1328C12.2103 1.00009 12.285 1.02899 12.3398 1.08105C12.3948 1.13324 12.4258 1.20453 12.4258 1.27832V2.07617H18.1494V1.27832C18.1494 1.24188 18.1563 1.20556 18.1709 1.17188C18.1856 1.13813 18.2072 1.10689 18.2344 1.08105C18.2616 1.05521 18.2945 1.03546 18.3301 1.02148C18.3656 1.00752 18.4039 0.999979 18.4424 1H20.707C20.7846 1.00003 20.8592 1.02902 20.9141 1.08105C20.969 1.13324 21 1.20453 21 1.27832V3.42969C21 3.50348 20.969 3.57477 20.9141 3.62695C20.8592 3.67904 20.7846 3.70798 20.707 3.70801H19.8672V9.14551H20.707C20.7847 9.14558 20.8592 9.17539 20.9141 9.22754C20.9688 9.27964 20.9999 9.3502 21 9.42383V11.5762C20.9999 11.6498 20.9688 11.7204 20.9141 11.7725C20.8592 11.8246 20.7847 11.8544 20.707 11.8545H19.8672V17.292H20.707C20.7846 17.292 20.8592 17.321 20.9141 17.373C20.969 17.4252 21 17.4965 21 17.5703V19.7217C21 19.7955 20.969 19.8668 20.9141 19.9189C20.8592 19.971 20.7846 20 20.707 20H18.4424C18.4039 20 18.3656 19.9925 18.3301 19.9785C18.2945 19.9645 18.2616 19.9448 18.2344 19.9189C18.2072 19.8931 18.1856 19.8619 18.1709 19.8281C18.1563 19.7944 18.1494 19.7581 18.1494 19.7217V18.9238H12.4258V19.7217C12.4258 19.7955 12.3948 19.8668 12.3398 19.9189C12.285 19.971 12.2103 19.9999 12.1328 20H9.86719C9.78965 20 9.71503 19.971 9.66016 19.9189C9.60523 19.8668 9.57422 19.7955 9.57422 19.7217V18.9238H3.85059V19.7217C3.85061 19.7582 3.84284 19.7944 3.82812 19.8281C3.81341 19.8619 3.79185 19.8931 3.76465 19.9189C3.73755 19.9446 3.70526 19.9646 3.66992 19.9785C3.63438 19.9925 3.59609 20 3.55762 20H1.29297C1.21543 20 1.14083 19.9709 1.08594 19.9189C1.03101 19.8668 1 19.7955 1 19.7217V17.5703C1 17.4965 1.03101 17.4252 1.08594 17.373C1.14084 17.321 1.21539 17.292 1.29297 17.292H2.13281V11.8545H1.29297C1.2153 11.8545 1.14085 11.8246 1.08594 11.7725C1.0311 11.7204 1.00011 11.6499 1 11.5762V9.42383C1.00011 9.35015 1.0311 9.27965 1.08594 9.22754C1.14085 9.17537 1.2153 9.14555 1.29297 9.14551H2.13281V3.70801H1.29297C1.21539 3.70801 1.14084 3.67901 1.08594 3.62695C1.03101 3.57477 1 3.50348 1 3.42969V1.27832C1 1.20453 1.03101 1.13324 1.08594 1.08105C1.14083 1.02905 1.21543 1 1.29297 1H3.55762ZM1.58594 17.8486V19.4434H3.26465V17.8486H1.58594ZM10.1602 17.8486V19.4434H11.8398V17.8486H10.1602ZM18.7354 17.8486V19.4434H20.4141V17.8486H18.7354ZM3.85059 2.63281V3.42969C3.85061 3.46618 3.8428 3.50241 3.82812 3.53613C3.81341 3.5699 3.79185 3.60111 3.76465 3.62695C3.7375 3.65267 3.70535 3.67357 3.66992 3.6875C3.63442 3.70144 3.59603 3.70803 3.55762 3.70801H2.71875V9.14551H3.55762C3.63528 9.14551 3.70972 9.17537 3.76465 9.22754C3.81951 9.27966 3.85052 9.35012 3.85059 9.42383V11.5762C3.85052 11.6499 3.81951 11.7203 3.76465 11.7725C3.70972 11.8246 3.63528 11.8545 3.55762 11.8545H2.71875V17.292H3.55762C3.59603 17.292 3.63442 17.2986 3.66992 17.3125C3.70535 17.3264 3.7375 17.3473 3.76465 17.373C3.79185 17.3989 3.81341 17.4301 3.82812 17.4639C3.8428 17.4976 3.85061 17.5338 3.85059 17.5703V18.3672H9.57422V17.5703C9.57422 17.4965 9.60523 17.4252 9.66016 17.373C9.71503 17.321 9.78961 17.292 9.86719 17.292H12.1328C12.2104 17.2921 12.285 17.3209 12.3398 17.373C12.3948 17.4252 12.4258 17.4965 12.4258 17.5703V18.3672H18.1494V17.5703C18.1494 17.5339 18.1563 17.4975 18.1709 17.4639C18.1856 17.4302 18.2072 17.3989 18.2344 17.373C18.2616 17.3472 18.2945 17.3265 18.3301 17.3125C18.3655 17.2986 18.404 17.292 18.4424 17.292H19.2812V11.8545H18.4424C18.3648 11.8545 18.2903 11.8246 18.2354 11.7725C18.1805 11.7203 18.1495 11.6499 18.1494 11.5762V9.42383C18.1495 9.35012 18.1805 9.27966 18.2354 9.22754C18.2903 9.17544 18.3648 9.14551 18.4424 9.14551H19.2812V3.70801H18.4424C18.404 3.70803 18.3655 3.70139 18.3301 3.6875C18.2945 3.67352 18.2616 3.65279 18.2344 3.62695C18.2072 3.60114 18.1856 3.56984 18.1709 3.53613C18.1563 3.50249 18.1494 3.46608 18.1494 3.42969V2.63281H12.4258V3.42969C12.4258 3.50347 12.3948 3.57477 12.3398 3.62695C12.285 3.67905 12.2104 3.70791 12.1328 3.70801H9.86719C9.78961 3.70797 9.71503 3.67905 9.66016 3.62695C9.60523 3.57477 9.57422 3.50348 9.57422 3.42969V2.63281H3.85059ZM16.0215 5.13379C16.099 5.13387 16.1737 5.16279 16.2285 5.21484C16.2834 5.26702 16.3145 5.33831 16.3145 5.41211V8.52539C16.3143 8.57986 16.2973 8.63329 16.2656 8.67871C16.2339 8.72413 16.1885 8.75992 16.1357 8.78125C16.0829 8.8025 16.0242 8.80872 15.9678 8.79883C15.9112 8.78884 15.8587 8.76258 15.8174 8.72461L14.3887 7.40918H12.2109V13.9531L13.1699 15.4424C13.197 15.4846 13.2119 15.5336 13.2129 15.583C13.2138 15.6323 13.2002 15.6807 13.1748 15.7236C13.1494 15.7667 13.1123 15.8031 13.0674 15.8281C13.0226 15.8529 12.9717 15.8662 12.9199 15.8662H9.08105C9.02904 15.8662 8.9775 15.8531 8.93262 15.8281C8.88776 15.8031 8.85063 15.7667 8.8252 15.7236C8.79993 15.6807 8.7872 15.6322 8.78809 15.583C8.78905 15.5336 8.80395 15.4846 8.83105 15.4424L9.78906 13.9531V7.40918H7.6123L6.18359 8.72461C6.14225 8.76258 6.08974 8.78884 6.0332 8.79883C5.97667 8.80882 5.91819 8.80256 5.86523 8.78125C5.81229 8.75994 5.76713 8.72423 5.73535 8.67871C5.70362 8.63325 5.68663 8.57994 5.68652 8.52539V5.41211C5.68652 5.33831 5.71753 5.26702 5.77246 5.21484C5.82736 5.16284 5.90196 5.13379 5.97949 5.13379H16.0215ZM6.27246 5.69043V7.86816L7.29004 6.93164C7.34452 6.88154 7.41733 6.85351 7.49316 6.85352H10.082C10.1596 6.85358 10.2342 6.88251 10.2891 6.93457C10.344 6.98675 10.375 7.05804 10.375 7.13184V14.0322C10.375 14.0832 10.36 14.1332 10.332 14.1768L9.60254 15.3105H12.3975L11.6689 14.1768C11.6409 14.1332 11.626 14.0833 11.626 14.0322V7.13184C11.626 7.05804 11.656 6.98675 11.7109 6.93457C11.7658 6.88249 11.8405 6.85363 11.918 6.85352H14.5068C14.5828 6.85345 14.6564 6.88136 14.7109 6.93164L15.7285 7.86816V5.69043H6.27246ZM1.58594 9.70215V11.2979H3.26465V9.70215H1.58594ZM18.7354 9.70215V11.2979H20.4141V9.70215H18.7354ZM1.58594 1.55664V3.15137H3.26465V1.55664H1.58594ZM10.1602 1.55664V3.15137H11.8398V1.55664H10.1602ZM18.7354 1.55664V3.15137H20.4141V1.55664H18.7354Z"/>
</mask>
<path d="M3.55762 1C3.59609 0.999979 3.63438 1.00751 3.66992 1.02148C3.70526 1.0354 3.73755 1.0554 3.76465 1.08105C3.79185 1.1069 3.81341 1.13811 3.82812 1.17188C3.84284 1.20564 3.85061 1.24178 3.85059 1.27832V2.07617H9.57422V1.27832C9.57422 1.20453 9.60523 1.13324 9.66016 1.08105C9.71503 1.02901 9.78965 1.00004 9.86719 1H12.1328C12.2103 1.00009 12.285 1.02899 12.3398 1.08105C12.3948 1.13324 12.4258 1.20453 12.4258 1.27832V2.07617H18.1494V1.27832C18.1494 1.24188 18.1563 1.20556 18.1709 1.17188C18.1856 1.13813 18.2072 1.10689 18.2344 1.08105C18.2616 1.05521 18.2945 1.03546 18.3301 1.02148C18.3656 1.00752 18.4039 0.999979 18.4424 1H20.707C20.7846 1.00003 20.8592 1.02902 20.9141 1.08105C20.969 1.13324 21 1.20453 21 1.27832V3.42969C21 3.50348 20.969 3.57477 20.9141 3.62695C20.8592 3.67904 20.7846 3.70798 20.707 3.70801H19.8672V9.14551H20.707C20.7847 9.14558 20.8592 9.17539 20.9141 9.22754C20.9688 9.27964 20.9999 9.3502 21 9.42383V11.5762C20.9999 11.6498 20.9688 11.7204 20.9141 11.7725C20.8592 11.8246 20.7847 11.8544 20.707 11.8545H19.8672V17.292H20.707C20.7846 17.292 20.8592 17.321 20.9141 17.373C20.969 17.4252 21 17.4965 21 17.5703V19.7217C21 19.7955 20.969 19.8668 20.9141 19.9189C20.8592 19.971 20.7846 20 20.707 20H18.4424C18.4039 20 18.3656 19.9925 18.3301 19.9785C18.2945 19.9645 18.2616 19.9448 18.2344 19.9189C18.2072 19.8931 18.1856 19.8619 18.1709 19.8281C18.1563 19.7944 18.1494 19.7581 18.1494 19.7217V18.9238H12.4258V19.7217C12.4258 19.7955 12.3948 19.8668 12.3398 19.9189C12.285 19.971 12.2103 19.9999 12.1328 20H9.86719C9.78965 20 9.71503 19.971 9.66016 19.9189C9.60523 19.8668 9.57422 19.7955 9.57422 19.7217V18.9238H3.85059V19.7217C3.85061 19.7582 3.84284 19.7944 3.82812 19.8281C3.81341 19.8619 3.79185 19.8931 3.76465 19.9189C3.73755 19.9446 3.70526 19.9646 3.66992 19.9785C3.63438 19.9925 3.59609 20 3.55762 20H1.29297C1.21543 20 1.14083 19.9709 1.08594 19.9189C1.03101 19.8668 1 19.7955 1 19.7217V17.5703C1 17.4965 1.03101 17.4252 1.08594 17.373C1.14084 17.321 1.21539 17.292 1.29297 17.292H2.13281V11.8545H1.29297C1.2153 11.8545 1.14085 11.8246 1.08594 11.7725C1.0311 11.7204 1.00011 11.6499 1 11.5762V9.42383C1.00011 9.35015 1.0311 9.27965 1.08594 9.22754C1.14085 9.17537 1.2153 9.14555 1.29297 9.14551H2.13281V3.70801H1.29297C1.21539 3.70801 1.14084 3.67901 1.08594 3.62695C1.03101 3.57477 1 3.50348 1 3.42969V1.27832C1 1.20453 1.03101 1.13324 1.08594 1.08105C1.14083 1.02905 1.21543 1 1.29297 1H3.55762ZM1.58594 17.8486V19.4434H3.26465V17.8486H1.58594ZM10.1602 17.8486V19.4434H11.8398V17.8486H10.1602ZM18.7354 17.8486V19.4434H20.4141V17.8486H18.7354ZM3.85059 2.63281V3.42969C3.85061 3.46618 3.8428 3.50241 3.82812 3.53613C3.81341 3.5699 3.79185 3.60111 3.76465 3.62695C3.7375 3.65267 3.70535 3.67357 3.66992 3.6875C3.63442 3.70144 3.59603 3.70803 3.55762 3.70801H2.71875V9.14551H3.55762C3.63528 9.14551 3.70972 9.17537 3.76465 9.22754C3.81951 9.27966 3.85052 9.35012 3.85059 9.42383V11.5762C3.85052 11.6499 3.81951 11.7203 3.76465 11.7725C3.70972 11.8246 3.63528 11.8545 3.55762 11.8545H2.71875V17.292H3.55762C3.59603 17.292 3.63442 17.2986 3.66992 17.3125C3.70535 17.3264 3.7375 17.3473 3.76465 17.373C3.79185 17.3989 3.81341 17.4301 3.82812 17.4639C3.8428 17.4976 3.85061 17.5338 3.85059 17.5703V18.3672H9.57422V17.5703C9.57422 17.4965 9.60523 17.4252 9.66016 17.373C9.71503 17.321 9.78961 17.292 9.86719 17.292H12.1328C12.2104 17.2921 12.285 17.3209 12.3398 17.373C12.3948 17.4252 12.4258 17.4965 12.4258 17.5703V18.3672H18.1494V17.5703C18.1494 17.5339 18.1563 17.4975 18.1709 17.4639C18.1856 17.4302 18.2072 17.3989 18.2344 17.373C18.2616 17.3472 18.2945 17.3265 18.3301 17.3125C18.3655 17.2986 18.404 17.292 18.4424 17.292H19.2812V11.8545H18.4424C18.3648 11.8545 18.2903 11.8246 18.2354 11.7725C18.1805 11.7203 18.1495 11.6499 18.1494 11.5762V9.42383C18.1495 9.35012 18.1805 9.27966 18.2354 9.22754C18.2903 9.17544 18.3648 9.14551 18.4424 9.14551H19.2812V3.70801H18.4424C18.404 3.70803 18.3655 3.70139 18.3301 3.6875C18.2945 3.67352 18.2616 3.65279 18.2344 3.62695C18.2072 3.60114 18.1856 3.56984 18.1709 3.53613C18.1563 3.50249 18.1494 3.46608 18.1494 3.42969V2.63281H12.4258V3.42969C12.4258 3.50347 12.3948 3.57477 12.3398 3.62695C12.285 3.67905 12.2104 3.70791 12.1328 3.70801H9.86719C9.78961 3.70797 9.71503 3.67905 9.66016 3.62695C9.60523 3.57477 9.57422 3.50348 9.57422 3.42969V2.63281H3.85059ZM16.0215 5.13379C16.099 5.13387 16.1737 5.16279 16.2285 5.21484C16.2834 5.26702 16.3145 5.33831 16.3145 5.41211V8.52539C16.3143 8.57986 16.2973 8.63329 16.2656 8.67871C16.2339 8.72413 16.1885 8.75992 16.1357 8.78125C16.0829 8.8025 16.0242 8.80872 15.9678 8.79883C15.9112 8.78884 15.8587 8.76258 15.8174 8.72461L14.3887 7.40918H12.2109V13.9531L13.1699 15.4424C13.197 15.4846 13.2119 15.5336 13.2129 15.583C13.2138 15.6323 13.2002 15.6807 13.1748 15.7236C13.1494 15.7667 13.1123 15.8031 13.0674 15.8281C13.0226 15.8529 12.9717 15.8662 12.9199 15.8662H9.08105C9.02904 15.8662 8.9775 15.8531 8.93262 15.8281C8.88776 15.8031 8.85063 15.7667 8.8252 15.7236C8.79993 15.6807 8.7872 15.6322 8.78809 15.583C8.78905 15.5336 8.80395 15.4846 8.83105 15.4424L9.78906 13.9531V7.40918H7.6123L6.18359 8.72461C6.14225 8.76258 6.08974 8.78884 6.0332 8.79883C5.97667 8.80882 5.91819 8.80256 5.86523 8.78125C5.81229 8.75994 5.76713 8.72423 5.73535 8.67871C5.70362 8.63325 5.68663 8.57994 5.68652 8.52539V5.41211C5.68652 5.33831 5.71753 5.26702 5.77246 5.21484C5.82736 5.16284 5.90196 5.13379 5.97949 5.13379H16.0215ZM6.27246 5.69043V7.86816L7.29004 6.93164C7.34452 6.88154 7.41733 6.85351 7.49316 6.85352H10.082C10.1596 6.85358 10.2342 6.88251 10.2891 6.93457C10.344 6.98675 10.375 7.05804 10.375 7.13184V14.0322C10.375 14.0832 10.36 14.1332 10.332 14.1768L9.60254 15.3105H12.3975L11.6689 14.1768C11.6409 14.1332 11.626 14.0833 11.626 14.0322V7.13184C11.626 7.05804 11.656 6.98675 11.7109 6.93457C11.7658 6.88249 11.8405 6.85363 11.918 6.85352H14.5068C14.5828 6.85345 14.6564 6.88136 14.7109 6.93164L15.7285 7.86816V5.69043H6.27246ZM1.58594 9.70215V11.2979H3.26465V9.70215H1.58594ZM18.7354 9.70215V11.2979H20.4141V9.70215H18.7354ZM1.58594 1.55664V3.15137H3.26465V1.55664H1.58594ZM10.1602 1.55664V3.15137H11.8398V1.55664H10.1602ZM18.7354 1.55664V3.15137H20.4141V1.55664H18.7354Z" fill="#8043EB"/>
<path d="M3.55762 1L3.55762 1.2L3.55773 1.2L3.55762 1ZM3.66992 1.02148L3.74319 0.835389L3.74311 0.835355L3.66992 1.02148ZM3.76465 1.08105L3.9024 0.936055L3.90215 0.93582L3.76465 1.08105ZM3.82812 1.17188L4.01148 1.092L4.01148 1.09199L3.82812 1.17188ZM3.85059 1.27832L3.65059 1.2782V1.27832H3.85059ZM3.85059 2.07617H3.65059V2.27617H3.85059V2.07617ZM9.57422 2.07617V2.27617H9.77422V2.07617H9.57422ZM9.66016 1.08105L9.52252 0.935945L9.52241 0.936056L9.66016 1.08105ZM9.86719 1L9.86719 0.8L9.86708 0.8L9.86719 1ZM12.1328 1L12.1331 0.8H12.1328V1ZM12.3398 1.08105L12.4776 0.936056L12.4776 0.936015L12.3398 1.08105ZM12.4258 1.27832H12.2258H12.4258ZM12.4258 2.07617H12.2258V2.27617H12.4258V2.07617ZM18.1494 2.07617V2.27617H18.3494V2.07617H18.1494ZM18.1494 1.27832L18.3494 1.27832L18.3494 1.2782L18.1494 1.27832ZM18.1709 1.17188L17.9875 1.09199L17.9875 1.09221L18.1709 1.17188ZM18.2344 1.08105L18.0966 0.936056L18.0966 0.93609L18.2344 1.08105ZM18.3301 1.02148L18.2569 0.835344L18.2569 0.835355L18.3301 1.02148ZM18.4424 1L18.4423 1.2H18.4424V1ZM20.707 1L20.7071 0.8H20.707V1ZM20.9141 1.08105L21.0518 0.936055L21.0517 0.935927L20.9141 1.08105ZM20.9141 3.62695L21.0517 3.77203L21.0518 3.77195L20.9141 3.62695ZM20.707 3.70801L20.707 3.90801L20.7071 3.90801L20.707 3.70801ZM19.8672 3.70801V3.50801H19.6672V3.70801H19.8672ZM19.8672 9.14551H19.6672V9.34551H19.8672V9.14551ZM20.707 9.14551L20.7072 8.94551H20.707V9.14551ZM20.9141 9.22754L21.0519 9.08263L21.0518 9.08254L20.9141 9.22754ZM21 9.42383L21.2 9.42383L21.2 9.42352L21 9.42383ZM21 11.5762L21.2 11.5765V11.5762H21ZM20.9141 11.7725L21.0518 11.9175L21.0519 11.9174L20.9141 11.7725ZM20.707 11.8545L20.707 12.0545L20.7072 12.0545L20.707 11.8545ZM19.8672 11.8545V11.6545H19.6672V11.8545H19.8672ZM19.8672 17.292H19.6672V17.492H19.8672V17.292ZM20.707 17.292L20.7071 17.092H20.707V17.292ZM20.9141 17.373L21.0518 17.228L21.0517 17.228L20.9141 17.373ZM20.9141 19.9189L21.0517 20.0641L21.0518 20.0639L20.9141 19.9189ZM20.707 20L20.707 20.2L20.7071 20.2L20.707 20ZM18.4424 20L18.4424 19.8L18.4423 19.8L18.4424 20ZM18.3301 19.9785L18.2569 20.1646L18.2569 20.1647L18.3301 19.9785ZM18.2344 19.9189L18.0966 20.0639L18.0966 20.0639L18.2344 19.9189ZM18.1709 19.8281L17.9875 19.9078L17.9875 19.908L18.1709 19.8281ZM18.1494 19.7217L18.3494 19.7218V19.7217H18.1494ZM18.1494 18.9238H18.3494V18.7238H18.1494V18.9238ZM12.4258 18.9238V18.7238H12.2258V18.9238H12.4258ZM12.3398 19.9189L12.4776 20.064L12.4776 20.0639L12.3398 19.9189ZM12.1328 20L12.1328 20.2L12.1331 20.2L12.1328 20ZM9.86719 20L9.86708 20.2H9.86719V20ZM9.66016 19.9189L9.52241 20.0639L9.52252 20.0641L9.66016 19.9189ZM9.57422 18.9238H9.77422V18.7238H9.57422V18.9238ZM3.85059 18.9238V18.7238H3.65059V18.9238H3.85059ZM3.85059 19.7217L3.65059 19.7217L3.65059 19.7218L3.85059 19.7217ZM3.82812 19.8281L4.01148 19.908L4.01148 19.908L3.82812 19.8281ZM3.76465 19.9189L3.90215 20.0642L3.9024 20.0639L3.76465 19.9189ZM3.66992 19.9785L3.74311 20.1646L3.74319 20.1646L3.66992 19.9785ZM3.55762 20L3.55773 19.8H3.55762V20ZM1.08594 19.9189L0.948187 20.0639L0.948397 20.0641L1.08594 19.9189ZM1.08594 17.373L0.948338 17.2279L0.948187 17.228L1.08594 17.373ZM1.29297 17.292L1.29297 17.092L1.29297 17.292ZM2.13281 17.292V17.492H2.33281V17.292H2.13281ZM2.13281 11.8545H2.33281V11.6545H2.13281V11.8545ZM1.29297 11.8545L1.29286 12.0545H1.29297V11.8545ZM1.08594 11.7725L0.948168 11.9174L0.948187 11.9175L1.08594 11.7725ZM1 11.5762L0.8 11.5762L0.8 11.5765L1 11.5762ZM1 9.42383L0.8 9.42352V9.42383H1ZM1.08594 9.22754L0.948187 9.08254L0.948168 9.08256L1.08594 9.22754ZM1.29297 9.14551L1.29297 8.94551L1.29286 8.94551L1.29297 9.14551ZM2.13281 9.14551V9.34551H2.33281V9.14551H2.13281ZM2.13281 3.70801H2.33281V3.50801H2.13281V3.70801ZM1.08594 3.62695L0.948187 3.77195L0.948338 3.7721L1.08594 3.62695ZM1.08594 1.08105L0.948397 0.935856L0.948187 0.936056L1.08594 1.08105ZM1.58594 17.8486V17.6486H1.38594V17.8486H1.58594ZM1.58594 19.4434H1.38594V19.6434H1.58594V19.4434ZM3.26465 19.4434V19.6434H3.46465V19.4434H3.26465ZM3.26465 17.8486H3.46465V17.6486H3.26465V17.8486ZM10.1602 17.8486V17.6486H9.96016V17.8486H10.1602ZM10.1602 19.4434H9.96016V19.6434H10.1602V19.4434ZM11.8398 19.4434V19.6434H12.0398V19.4434H11.8398ZM11.8398 17.8486H12.0398V17.6486H11.8398V17.8486ZM18.7354 17.8486V17.6486H18.5354V17.8486H18.7354ZM18.7354 19.4434H18.5354V19.6434H18.7354V19.4434ZM20.4141 19.4434V19.6434H20.6141V19.4434H20.4141ZM20.4141 17.8486H20.6141V17.6486H20.4141V17.8486ZM3.85059 2.63281V2.43281H3.65059V2.63281H3.85059ZM3.85059 3.42969L3.65059 3.42969L3.65059 3.42981L3.85059 3.42969ZM3.82812 3.53613L4.01148 3.61601L4.01153 3.61591L3.82812 3.53613ZM3.76465 3.62695L3.90221 3.77213L3.9024 3.77195L3.76465 3.62695ZM3.66992 3.6875L3.74301 3.87367L3.74311 3.87363L3.66992 3.6875ZM3.55762 3.70801L3.55773 3.50801H3.55762V3.70801ZM2.71875 3.70801V3.50801H2.51875V3.70801H2.71875ZM2.71875 9.14551H2.51875V9.34551H2.71875V9.14551ZM3.76465 9.22754L3.9024 9.08254L3.90238 9.08252L3.76465 9.22754ZM3.85059 9.42383L4.05059 9.42383L4.05059 9.42364L3.85059 9.42383ZM3.85059 11.5762L4.05059 11.5764V11.5762H3.85059ZM3.76465 11.7725L3.90238 11.9175L3.9024 11.9175L3.76465 11.7725ZM3.55762 11.8545V11.6545V11.8545ZM2.71875 11.8545V11.6545H2.51875V11.8545H2.71875ZM2.71875 17.292H2.51875V17.492H2.71875V17.292ZM3.55762 17.292L3.55762 17.492L3.55773 17.492L3.55762 17.292ZM3.66992 17.3125L3.74311 17.1264L3.74301 17.1263L3.66992 17.3125ZM3.76465 17.373L3.9024 17.228L3.90221 17.2279L3.76465 17.373ZM3.82812 17.4639L4.01153 17.3841L4.01148 17.384L3.82812 17.4639ZM3.85059 17.5703L3.65059 17.5702V17.5703H3.85059ZM3.85059 18.3672H3.65059V18.5672H3.85059V18.3672ZM9.57422 18.3672V18.5672H9.77422V18.3672H9.57422ZM9.66016 17.373L9.52246 17.228L9.52241 17.228L9.66016 17.373ZM9.86719 17.292L9.86719 17.092L9.86708 17.092L9.86719 17.292ZM12.1328 17.292L12.1331 17.092H12.1328V17.292ZM12.3398 17.373L12.4776 17.2281L12.4776 17.228L12.3398 17.373ZM12.4258 17.5703H12.2258H12.4258ZM12.4258 18.3672H12.2258V18.5672H12.4258V18.3672ZM18.1494 18.3672V18.5672H18.3494V18.3672H18.1494ZM18.1494 17.5703L18.3494 17.5703L18.3494 17.5702L18.1494 17.5703ZM18.1709 17.4639L17.9875 17.384L17.9874 17.3843L18.1709 17.4639ZM18.2344 17.373L18.0966 17.228L18.0965 17.2281L18.2344 17.373ZM18.3301 17.3125L18.2571 17.1263L18.2569 17.1264L18.3301 17.3125ZM18.4424 17.292L18.4423 17.492H18.4424V17.292ZM19.2812 17.292V17.492H19.4813V17.292H19.2812ZM19.2812 11.8545H19.4813V11.6545H19.2812V11.8545ZM18.2354 11.7725L18.0976 11.9175L18.0977 11.9175L18.2354 11.7725ZM18.1494 11.5762L17.9494 11.5762L17.9494 11.5764L18.1494 11.5762ZM18.1494 9.42383L17.9494 9.42364V9.42383H18.1494ZM18.2354 9.22754L18.0977 9.08245L18.0976 9.08254L18.2354 9.22754ZM18.4424 9.14551L18.4424 8.94551L18.4424 9.14551ZM19.2812 9.14551V9.34551H19.4813V9.14551H19.2812ZM19.2812 3.70801H19.4813V3.50801H19.2812V3.70801ZM18.4424 3.70801L18.4424 3.50801L18.4423 3.50801L18.4424 3.70801ZM18.3301 3.6875L18.2569 3.87363L18.2571 3.87371L18.3301 3.6875ZM18.2344 3.62695L18.0965 3.77186L18.0966 3.77195L18.2344 3.62695ZM18.1709 3.53613L17.9874 3.6157L17.9875 3.61601L18.1709 3.53613ZM18.1494 3.42969L18.3494 3.42981V3.42969H18.1494ZM18.1494 2.63281H18.3494V2.43281H18.1494V2.63281ZM12.4258 2.63281V2.43281H12.2258V2.63281H12.4258ZM12.3398 3.62695L12.4776 3.77195L12.4776 3.77194L12.3398 3.62695ZM12.1328 3.70801L12.1328 3.90801L12.1331 3.90801L12.1328 3.70801ZM9.86719 3.70801L9.86708 3.90801H9.86719V3.70801ZM9.66016 3.62695L9.52241 3.77195L9.52246 3.77201L9.66016 3.62695ZM9.57422 2.63281H9.77422V2.43281H9.57422V2.63281ZM16.0215 5.13379L16.0217 4.93379H16.0215V5.13379ZM16.2285 5.21484L16.3663 5.06984L16.3662 5.06979L16.2285 5.21484ZM16.3145 8.52539L16.5145 8.52579V8.52539H16.3145ZM16.2656 8.67871L16.4296 8.7932L16.4297 8.79304L16.2656 8.67871ZM16.1357 8.78125L16.2104 8.9668L16.2107 8.96669L16.1357 8.78125ZM15.9678 8.79883L15.933 8.99578L15.9332 8.99582L15.9678 8.79883ZM15.8174 8.72461L15.6819 8.87174L15.6821 8.87192L15.8174 8.72461ZM14.3887 7.40918L14.5241 7.26205L14.4667 7.20918H14.3887V7.40918ZM12.2109 7.40918V7.20918H12.0109V7.40918H12.2109ZM12.2109 13.9531H12.0109V14.0119L12.0428 14.0614L12.2109 13.9531ZM13.1699 15.4424L13.3382 15.3342L13.3381 15.3341L13.1699 15.4424ZM13.2129 15.583L13.4129 15.5794L13.4129 15.5791L13.2129 15.583ZM13.1748 15.7236L13.347 15.8253L13.3471 15.8253L13.1748 15.7236ZM13.0674 15.8281L13.1644 16.003L13.1647 16.0029L13.0674 15.8281ZM12.9199 15.8662L12.9199 16.0662L12.9201 16.0662L12.9199 15.8662ZM9.08105 15.8662L9.08099 16.0662H9.08105V15.8662ZM8.93262 15.8281L8.83532 16.0029L8.83535 16.0029L8.93262 15.8281ZM8.8252 15.7236L8.65285 15.8251L8.65297 15.8253L8.8252 15.7236ZM8.78809 15.583L8.58812 15.5791L8.58812 15.5794L8.78809 15.583ZM8.83105 15.4424L8.66285 15.3342L8.66281 15.3342L8.83105 15.4424ZM9.78906 13.9531L9.95727 14.0613L9.98906 14.0119V13.9531H9.78906ZM9.78906 7.40918H9.98906V7.20918H9.78906V7.40918ZM7.6123 7.40918V7.20918H7.53426L7.47684 7.26205L7.6123 7.40918ZM6.18359 8.72461L6.31887 8.87192L6.31906 8.87174L6.18359 8.72461ZM6.0332 8.79883L6.068 8.99578L6.06801 8.99578L6.0332 8.79883ZM5.86523 8.78125L5.79056 8.96678L5.79058 8.96679L5.86523 8.78125ZM5.73535 8.67871L5.57135 8.79318L5.57136 8.7932L5.73535 8.67871ZM5.68652 8.52539L5.48652 8.52539L5.48652 8.52579L5.68652 8.52539ZM5.77246 5.21484L5.63492 5.06965L5.63471 5.06984L5.77246 5.21484ZM6.27246 5.69043V5.49043H6.07246V5.69043H6.27246ZM6.27246 7.86816H6.07246V8.32404L6.4079 8.01532L6.27246 7.86816ZM7.29004 6.93164L7.15466 6.78443L7.1546 6.78448L7.29004 6.93164ZM7.49316 6.85352L7.49314 7.05352H7.49316V6.85352ZM10.082 6.85352L10.0822 6.65352H10.082V6.85352ZM10.2891 6.93457L10.4268 6.78957L10.4267 6.78949L10.2891 6.93457ZM10.375 14.0322L10.575 14.0323V14.0322H10.375ZM10.332 14.1768L10.5002 14.285L10.5003 14.2848L10.332 14.1768ZM9.60254 15.3105L9.43435 15.2023L9.23604 15.5105H9.60254V15.3105ZM12.3975 15.3105V15.5105H12.7637L12.5657 15.2024L12.3975 15.3105ZM11.6689 14.1768L11.8372 14.0686L11.8371 14.0685L11.6689 14.1768ZM11.626 14.0322L11.426 14.0322L11.426 14.0323L11.626 14.0322ZM11.7109 6.93457L11.5732 6.78957L11.5732 6.78957L11.7109 6.93457ZM11.918 6.85352L11.918 6.65352L11.9177 6.65352L11.918 6.85352ZM14.5068 6.85352L14.5068 7.05352L14.507 7.05352L14.5068 6.85352ZM14.7109 6.93164L14.5754 7.0787L14.5755 7.0788L14.7109 6.93164ZM15.7285 7.86816L15.5931 8.01532L15.9285 8.32404V7.86816H15.7285ZM15.7285 5.69043H15.9285V5.49043H15.7285V5.69043ZM1.58594 9.70215V9.50215H1.38594V9.70215H1.58594ZM1.58594 11.2979H1.38594V11.4979H1.58594V11.2979ZM3.26465 11.2979V11.4979H3.46465V11.2979H3.26465ZM3.26465 9.70215H3.46465V9.50215H3.26465V9.70215ZM18.7354 9.70215V9.50215H18.5354V9.70215H18.7354ZM18.7354 11.2979H18.5354V11.4979H18.7354V11.2979ZM20.4141 11.2979V11.4979H20.6141V11.2979H20.4141ZM20.4141 9.70215H20.6141V9.50215H20.4141V9.70215ZM1.58594 1.55664V1.35664H1.38594V1.55664H1.58594ZM1.58594 3.15137H1.38594V3.35137H1.58594V3.15137ZM3.26465 3.15137V3.35137H3.46465V3.15137H3.26465ZM3.26465 1.55664H3.46465V1.35664H3.26465V1.55664ZM10.1602 1.55664V1.35664H9.96016V1.55664H10.1602ZM10.1602 3.15137H9.96016V3.35137H10.1602V3.15137ZM11.8398 3.15137V3.35137H12.0398V3.15137H11.8398ZM11.8398 1.55664H12.0398V1.35664H11.8398V1.55664ZM18.7354 1.55664V1.35664H18.5354V1.55664H18.7354ZM18.7354 3.15137H18.5354V3.35137H18.7354V3.15137ZM20.4141 3.15137V3.35137H20.6141V3.15137H20.4141ZM20.4141 1.55664H20.6141V1.35664H20.4141V1.55664ZM3.55762 1L3.55773 1.2C3.57022 1.19999 3.5837 1.20249 3.59674 1.20761L3.66992 1.02148L3.74311 0.835355C3.68505 0.81253 3.62195 0.799965 3.55751 0.8L3.55762 1ZM3.66992 1.02148L3.59665 1.20758C3.60994 1.21281 3.61999 1.21951 3.62715 1.22629L3.76465 1.08105L3.90215 0.93582C3.85512 0.891294 3.80058 0.857985 3.74319 0.835389L3.66992 1.02148ZM3.76465 1.08105L3.6269 1.22605C3.63424 1.23303 3.6405 1.24195 3.64477 1.25176L3.82812 1.17188L4.01148 1.09199C3.98633 1.03427 3.94946 0.980765 3.9024 0.936056L3.76465 1.08105ZM3.82812 1.17188L3.64477 1.25175C3.64891 1.26125 3.65059 1.27022 3.65059 1.2782L3.85059 1.27832L4.05059 1.27844C4.05063 1.21334 4.03677 1.15004 4.01148 1.092L3.82812 1.17188ZM3.85059 1.27832H3.65059V2.07617H3.85059H4.05059V1.27832H3.85059ZM3.85059 2.07617V2.27617H9.57422V2.07617V1.87617H3.85059V2.07617ZM9.57422 2.07617H9.77422V1.27832H9.57422H9.37422V2.07617H9.57422ZM9.57422 1.27832H9.77422C9.77422 1.26085 9.78163 1.24152 9.79791 1.22605L9.66016 1.08105L9.52241 0.936056C9.42883 1.02495 9.37422 1.14821 9.37422 1.27832H9.57422ZM9.66016 1.08105L9.79779 1.22616C9.81401 1.21078 9.83881 1.20002 9.8673 1.2L9.86719 1L9.86708 0.8C9.74049 0.80007 9.61604 0.847244 9.52252 0.935945L9.66016 1.08105ZM9.86719 1V1.2H12.1328V1V0.8H9.86719V1ZM12.1328 1L12.1326 1.2C12.1613 1.20003 12.1861 1.21087 12.2021 1.22609L12.3398 1.08105L12.4776 0.936015C12.3839 0.847116 12.2593 0.800153 12.1331 0.8L12.1328 1ZM12.3398 1.08105L12.2021 1.22605C12.2184 1.24152 12.2258 1.26085 12.2258 1.27832L12.4258 1.27832L12.6258 1.27832C12.6258 1.14821 12.5712 1.02495 12.4776 0.936056L12.3398 1.08105ZM12.4258 1.27832H12.2258V2.07617H12.4258H12.6258V1.27832H12.4258ZM12.4258 2.07617V2.27617H18.1494V2.07617V1.87617H12.4258V2.07617ZM18.1494 2.07617H18.3494V1.27832H18.1494H17.9494V2.07617H18.1494ZM18.1494 1.27832L18.3494 1.2782C18.3494 1.26686 18.3515 1.25798 18.3543 1.25154L18.1709 1.17188L17.9875 1.09221C17.961 1.15314 17.9494 1.2169 17.9494 1.27844L18.1494 1.27832ZM18.1709 1.17188L18.3543 1.25176C18.3585 1.242 18.3648 1.23302 18.3722 1.22602L18.2344 1.08105L18.0966 0.93609C18.0496 0.980747 18.0127 1.03426 17.9875 1.09199L18.1709 1.17188ZM18.2344 1.08105L18.3721 1.22605C18.3779 1.2206 18.3878 1.21368 18.4033 1.20761L18.3301 1.02148L18.2569 0.835355C18.2012 0.857238 18.1453 0.889826 18.0966 0.936056L18.2344 1.08105ZM18.3301 1.02148L18.4032 1.20763C18.4163 1.20249 18.4298 1.19999 18.4423 1.2L18.4424 1L18.4425 0.8C18.378 0.799965 18.3149 0.812549 18.2569 0.835344L18.3301 1.02148ZM18.4424 1V1.2H20.707V1V0.8H18.4424V1ZM20.707 1L20.707 1.2C20.7354 1.20001 20.7602 1.21075 20.7764 1.22618L20.9141 1.08105L21.0517 0.935927C20.9582 0.847277 20.8338 0.800049 20.7071 0.8L20.707 1ZM20.9141 1.08105L20.7763 1.22605C20.7926 1.24152 20.8 1.26085 20.8 1.27832H21H21.2C21.2 1.14821 21.1454 1.02495 21.0518 0.936056L20.9141 1.08105ZM21 1.27832H20.8V3.42969H21H21.2V1.27832H21ZM21 3.42969H20.8C20.8 3.44716 20.7926 3.46649 20.7763 3.48195L20.9141 3.62695L21.0518 3.77195C21.1454 3.68306 21.2 3.5598 21.2 3.42969H21ZM20.9141 3.62695L20.7764 3.48188C20.7602 3.49727 20.7355 3.508 20.707 3.50801L20.707 3.70801L20.7071 3.90801C20.8337 3.90796 20.9582 3.86082 21.0517 3.77203L20.9141 3.62695ZM20.707 3.70801V3.50801H19.8672V3.70801V3.90801H20.707V3.70801ZM19.8672 3.70801H19.6672V9.14551H19.8672H20.0672V3.70801H19.8672ZM19.8672 9.14551V9.34551H20.707V9.14551V8.94551H19.8672V9.14551ZM20.707 9.14551L20.7068 9.34551C20.7339 9.34553 20.759 9.3561 20.7763 9.37254L20.9141 9.22754L21.0518 9.08254C20.9593 8.99469 20.8354 8.94563 20.7072 8.94551L20.707 9.14551ZM20.9141 9.22754L20.7762 9.37245C20.7929 9.38833 20.8 9.40725 20.8 9.42414L21 9.42383L21.2 9.42352C21.1998 9.29314 21.1448 9.17095 21.0519 9.08263L20.9141 9.22754ZM21 9.42383H20.8V11.5762H21H21.2V9.42383H21ZM21 11.5762L20.8 11.5759C20.8 11.5927 20.7929 11.6117 20.7762 11.6276L20.9141 11.7725L21.0519 11.9174C21.1448 11.829 21.1998 11.7069 21.2 11.5765L21 11.5762ZM20.9141 11.7725L20.7763 11.6275C20.759 11.6439 20.7339 11.6545 20.7068 11.6545L20.707 11.8545L20.7072 12.0545C20.8354 12.0544 20.9593 12.0053 21.0518 11.9175L20.9141 11.7725ZM20.707 11.8545V11.6545H19.8672V11.8545V12.0545H20.707V11.8545ZM19.8672 11.8545H19.6672V17.292H19.8672H20.0672V11.8545H19.8672ZM19.8672 17.292V17.492H20.707V17.292V17.092H19.8672V17.292ZM20.707 17.292L20.707 17.492C20.7355 17.492 20.7602 17.5027 20.7764 17.5181L20.9141 17.373L21.0517 17.228C20.9582 17.1392 20.8337 17.092 20.7071 17.092L20.707 17.292ZM20.9141 17.373L20.7763 17.518C20.7926 17.5335 20.8 17.5528 20.8 17.5703H21H21.2C21.2 17.4402 21.1454 17.3169 21.0518 17.228L20.9141 17.373ZM21 17.5703H20.8V19.7217H21H21.2V17.5703H21ZM21 19.7217H20.8C20.8 19.7392 20.7926 19.7585 20.7763 19.7739L20.9141 19.9189L21.0518 20.0639C21.1454 19.975 21.2 19.8518 21.2 19.7217H21ZM20.9141 19.9189L20.7764 19.7738C20.7602 19.7892 20.7354 19.8 20.707 19.8L20.707 20L20.7071 20.2C20.8338 20.2 20.9582 20.1527 21.0517 20.0641L20.9141 19.9189ZM20.707 20V19.8H18.4424V20V20.2H20.707V20ZM18.4424 20L18.4423 19.8C18.4298 19.8 18.4163 19.7975 18.4032 19.7924L18.3301 19.9785L18.2569 20.1647C18.3149 20.1875 18.378 20.2 18.4425 20.2L18.4424 20ZM18.3301 19.9785L18.4033 19.7924C18.3878 19.7863 18.3779 19.7794 18.3721 19.7739L18.2344 19.9189L18.0966 20.0639C18.1453 20.1102 18.2012 20.1428 18.2569 20.1646L18.3301 19.9785ZM18.2344 19.9189L18.3722 19.774C18.3648 19.767 18.3585 19.758 18.3543 19.7482L18.1709 19.8281L17.9875 19.908C18.0127 19.9657 18.0496 20.0193 18.0966 20.0639L18.2344 19.9189ZM18.1709 19.8281L18.3543 19.7485C18.3515 19.742 18.3494 19.7331 18.3494 19.7218L18.1494 19.7217L17.9494 19.7216C17.9494 19.7831 17.961 19.8469 17.9875 19.9078L18.1709 19.8281ZM18.1494 19.7217H18.3494V18.9238H18.1494H17.9494V19.7217H18.1494ZM18.1494 18.9238V18.7238H12.4258V18.9238V19.1238H18.1494V18.9238ZM12.4258 18.9238H12.2258V19.7217H12.4258H12.6258V18.9238H12.4258ZM12.4258 19.7217H12.2258C12.2258 19.7392 12.2184 19.7585 12.2021 19.7739L12.3398 19.9189L12.4776 20.0639C12.5712 19.975 12.6258 19.8518 12.6258 19.7217H12.4258ZM12.3398 19.9189L12.2021 19.7739C12.1861 19.7891 12.1613 19.8 12.1326 19.8L12.1328 20L12.1331 20.2C12.2593 20.1998 12.3839 20.1529 12.4776 20.064L12.3398 19.9189ZM12.1328 20V19.8H9.86719V20V20.2H12.1328V20ZM9.86719 20L9.8673 19.8C9.8388 19.8 9.81401 19.7892 9.79779 19.7738L9.66016 19.9189L9.52252 20.0641C9.61604 20.1528 9.74049 20.1999 9.86708 20.2L9.86719 20ZM9.66016 19.9189L9.79791 19.7739C9.78163 19.7585 9.77422 19.7392 9.77422 19.7217H9.57422H9.37422C9.37422 19.8518 9.42883 19.975 9.52241 20.0639L9.66016 19.9189ZM9.57422 19.7217H9.77422V18.9238H9.57422H9.37422V19.7217H9.57422ZM9.57422 18.9238V18.7238H3.85059V18.9238V19.1238H9.57422V18.9238ZM3.85059 18.9238H3.65059V19.7217H3.85059H4.05059V18.9238H3.85059ZM3.85059 19.7217L3.65059 19.7218C3.65059 19.7298 3.64891 19.7388 3.64477 19.7482L3.82812 19.8281L4.01148 19.908C4.03677 19.85 4.05063 19.7867 4.05059 19.7216L3.85059 19.7217ZM3.82812 19.8281L3.64477 19.7482C3.6405 19.7581 3.63424 19.767 3.6269 19.7739L3.76465 19.9189L3.9024 20.0639C3.94946 20.0192 3.98633 19.9657 4.01148 19.908L3.82812 19.8281ZM3.76465 19.9189L3.62715 19.7737C3.61999 19.7805 3.60994 19.7872 3.59665 19.7924L3.66992 19.9785L3.74319 20.1646C3.80058 20.142 3.85512 20.1087 3.90215 20.0642L3.76465 19.9189ZM3.66992 19.9785L3.59674 19.7924C3.5837 19.7975 3.57022 19.8 3.55773 19.8L3.55762 20L3.55751 20.2C3.62195 20.2 3.68505 20.1875 3.74311 20.1646L3.66992 19.9785ZM3.55762 20V19.8H1.29297V20V20.2H3.55762V20ZM1.29297 20V19.8C1.26473 19.8 1.23989 19.7893 1.22348 19.7737L1.08594 19.9189L0.948397 20.0641C1.04178 20.1526 1.16613 20.2 1.29297 20.2V20ZM1.08594 19.9189L1.22369 19.7739C1.20741 19.7585 1.2 19.7392 1.2 19.7217H1H0.8C0.8 19.8518 0.854614 19.975 0.948187 20.0639L1.08594 19.9189ZM1 19.7217H1.2V17.5703H1H0.8V19.7217H1ZM1 17.5703H1.2C1.2 17.5528 1.20741 17.5335 1.22369 17.518L1.08594 17.373L0.948187 17.228C0.854614 17.3169 0.8 17.4402 0.8 17.5703H1ZM1.08594 17.373L1.22354 17.5182C1.23989 17.5027 1.26463 17.492 1.29297 17.492L1.29297 17.292L1.29297 17.092C1.16615 17.092 1.0418 17.1393 0.948339 17.2279L1.08594 17.373ZM1.29297 17.292V17.492H2.13281V17.292V17.092H1.29297V17.292ZM2.13281 17.292H2.33281V11.8545H2.13281H1.93281V17.292H2.13281ZM2.13281 11.8545V11.6545H1.29297V11.8545V12.0545H2.13281V11.8545ZM1.29297 11.8545L1.29308 11.6545C1.26609 11.6545 1.24106 11.644 1.22369 11.6275L1.08594 11.7725L0.948187 11.9175C1.04065 12.0053 1.16452 12.0544 1.29286 12.0545L1.29297 11.8545ZM1.08594 11.7725L1.22371 11.6275C1.20708 11.6117 1.20003 11.5929 1.2 11.5759L1 11.5762L0.8 11.5765C0.8002 11.7068 0.855122 11.829 0.948168 11.9174L1.08594 11.7725ZM1 11.5762H1.2V9.42383H1H0.8V11.5762H1ZM1 9.42383L1.2 9.42414C1.20003 9.40713 1.20708 9.38832 1.22371 9.37252L1.08594 9.22754L0.948168 9.08256C0.855121 9.17098 0.800201 9.29317 0.8 9.42352L1 9.42383ZM1.08594 9.22754L1.22369 9.37254C1.24106 9.35603 1.26609 9.34552 1.29308 9.34551L1.29297 9.14551L1.29286 8.94551C1.16452 8.94558 1.04065 8.9947 0.948187 9.08254L1.08594 9.22754ZM1.29297 9.14551V9.34551H2.13281V9.14551V8.94551H1.29297V9.14551ZM2.13281 9.14551H2.33281V3.70801H2.13281H1.93281V9.14551H2.13281ZM2.13281 3.70801V3.50801H1.29297V3.70801V3.90801H2.13281V3.70801ZM1.29297 3.70801V3.50801C1.26463 3.50801 1.23989 3.49731 1.22354 3.48181L1.08594 3.62695L0.948338 3.7721C1.0418 3.8607 1.16615 3.90801 1.29297 3.90801V3.70801ZM1.08594 3.62695L1.22369 3.48195C1.20741 3.46649 1.2 3.44716 1.2 3.42969H1H0.8C0.8 3.5598 0.854614 3.68306 0.948187 3.77195L1.08594 3.62695ZM1 3.42969H1.2V1.27832H1H0.8V3.42969H1ZM1 1.27832H1.2C1.2 1.26085 1.20741 1.24152 1.22369 1.22605L1.08594 1.08105L0.948187 0.936056C0.854614 1.02495 0.8 1.14821 0.8 1.27832H1ZM1.08594 1.08105L1.22348 1.22625C1.23989 1.21071 1.26473 1.2 1.29297 1.2V1V0.8C1.16613 0.8 1.04178 0.847399 0.948397 0.935856L1.08594 1.08105ZM1.29297 1V1.2H3.55762V1V0.8H1.29297V1ZM1.58594 17.8486H1.38594V19.4434H1.58594H1.78594V17.8486H1.58594ZM1.58594 19.4434V19.6434H3.26465V19.4434V19.2434H1.58594V19.4434ZM3.26465 19.4434H3.46465V17.8486H3.26465H3.06465V19.4434H3.26465ZM3.26465 17.8486V17.6486H1.58594V17.8486V18.0486H3.26465V17.8486ZM10.1602 17.8486H9.96016V19.4434H10.1602H10.3602V17.8486H10.1602ZM10.1602 19.4434V19.6434H11.8398V19.4434V19.2434H10.1602V19.4434ZM11.8398 19.4434H12.0398V17.8486H11.8398H11.6398V19.4434H11.8398ZM11.8398 17.8486V17.6486H10.1602V17.8486V18.0486H11.8398V17.8486ZM18.7354 17.8486H18.5354V19.4434H18.7354H18.9354V17.8486H18.7354ZM18.7354 19.4434V19.6434H20.4141V19.4434V19.2434H18.7354V19.4434ZM20.4141 19.4434H20.6141V17.8486H20.4141H20.2141V19.4434H20.4141ZM20.4141 17.8486V17.6486H18.7354V17.8486V18.0486H20.4141V17.8486ZM3.85059 2.63281H3.65059V3.42969H3.85059H4.05059V2.63281H3.85059ZM3.85059 3.42969L3.65059 3.42981C3.65059 3.43767 3.6489 3.44677 3.64472 3.45636L3.82812 3.53613L4.01153 3.61591C4.03669 3.55805 4.05063 3.4947 4.05059 3.42957L3.85059 3.42969ZM3.82812 3.53613L3.64477 3.45625C3.6405 3.46606 3.63424 3.47498 3.6269 3.48195L3.76465 3.62695L3.9024 3.77195C3.94946 3.72724 3.98633 3.67374 4.01148 3.61601L3.82812 3.53613ZM3.76465 3.62695L3.62709 3.48177C3.61776 3.49062 3.60725 3.49724 3.59674 3.50137L3.66992 3.6875L3.74311 3.87363C3.80345 3.8499 3.85725 3.81473 3.90221 3.77213L3.76465 3.62695ZM3.66992 3.6875L3.59683 3.50133C3.58683 3.50526 3.57355 3.50802 3.55773 3.50801L3.55762 3.70801L3.55751 3.90801C3.61851 3.90804 3.682 3.89762 3.74301 3.87367L3.66992 3.6875ZM3.55762 3.70801V3.50801H2.71875V3.70801V3.90801H3.55762V3.70801ZM2.71875 3.70801H2.51875V9.14551H2.71875H2.91875V3.70801H2.71875ZM2.71875 9.14551V9.34551H3.55762V9.14551V8.94551H2.71875V9.14551ZM3.55762 9.14551V9.34551C3.58443 9.34551 3.60946 9.35598 3.62692 9.37256L3.76465 9.22754L3.90238 9.08252C3.80999 8.99477 3.68613 8.94551 3.55762 8.94551V9.14551ZM3.76465 9.22754L3.6269 9.37254C3.64359 9.38839 3.65057 9.40713 3.65059 9.42402L3.85059 9.42383L4.05059 9.42364C4.05046 9.29311 3.99544 9.17093 3.9024 9.08254L3.76465 9.22754ZM3.85059 9.42383H3.65059V11.5762H3.85059H4.05059V9.42383H3.85059ZM3.85059 11.5762L3.65059 11.576C3.65057 11.5929 3.64359 11.6116 3.6269 11.6275L3.76465 11.7725L3.9024 11.9175C3.99544 11.8291 4.05046 11.7069 4.05059 11.5764L3.85059 11.5762ZM3.76465 11.7725L3.62692 11.6274C3.60946 11.644 3.58444 11.6545 3.55762 11.6545L3.55762 11.8545L3.55762 12.0545C3.68613 12.0545 3.80999 12.0052 3.90238 11.9175L3.76465 11.7725ZM3.55762 11.8545V11.6545H2.71875V11.8545V12.0545H3.55762V11.8545ZM2.71875 11.8545H2.51875V17.292H2.71875H2.91875V11.8545H2.71875ZM2.71875 17.292V17.492H3.55762V17.292V17.092H2.71875V17.292ZM3.55762 17.292L3.55773 17.492C3.57355 17.492 3.58683 17.4947 3.59683 17.4987L3.66992 17.3125L3.74301 17.1263C3.682 17.1024 3.61851 17.092 3.55751 17.092L3.55762 17.292ZM3.66992 17.3125L3.59674 17.4986C3.60725 17.5028 3.61776 17.5094 3.62709 17.5182L3.76465 17.373L3.90221 17.2279C3.85725 17.1853 3.80345 17.1501 3.74311 17.1264L3.66992 17.3125ZM3.76465 17.373L3.6269 17.518C3.63424 17.525 3.6405 17.5339 3.64477 17.5437L3.82812 17.4639L4.01148 17.384C3.98633 17.3263 3.94946 17.2728 3.9024 17.228L3.76465 17.373ZM3.82812 17.4639L3.64472 17.5436C3.6489 17.5532 3.65059 17.5623 3.65059 17.5702L3.85059 17.5703L4.05059 17.5704C4.05063 17.5053 4.0367 17.442 4.01153 17.3841L3.82812 17.4639ZM3.85059 17.5703H3.65059V18.3672H3.85059H4.05059V17.5703H3.85059ZM3.85059 18.3672V18.5672H9.57422V18.3672V18.1672H3.85059V18.3672ZM9.57422 18.3672H9.77422V17.5703H9.57422H9.37422V18.3672H9.57422ZM9.57422 17.5703H9.77422C9.77422 17.5528 9.78163 17.5335 9.79791 17.518L9.66016 17.373L9.52241 17.228C9.42883 17.3169 9.37422 17.4402 9.37422 17.5703H9.57422ZM9.66016 17.373L9.79785 17.5181C9.81401 17.5028 9.83871 17.492 9.8673 17.492L9.86719 17.292L9.86708 17.092C9.74051 17.0921 9.61606 17.1392 9.52246 17.228L9.66016 17.373ZM9.86719 17.292V17.492H12.1328V17.292V17.092H9.86719V17.292ZM12.1328 17.292L12.1326 17.492C12.1614 17.492 12.1861 17.5029 12.2021 17.518L12.3398 17.373L12.4776 17.228C12.3839 17.139 12.2593 17.0921 12.1331 17.092L12.1328 17.292ZM12.3398 17.373L12.2021 17.518C12.2184 17.5335 12.2258 17.5529 12.2258 17.5703L12.4258 17.5703L12.6258 17.5703C12.6258 17.4402 12.5711 17.3169 12.4776 17.2281L12.3398 17.373ZM12.4258 17.5703H12.2258V18.3672H12.4258H12.6258V17.5703H12.4258ZM12.4258 18.3672V18.5672H18.1494V18.3672V18.1672H12.4258V18.3672ZM18.1494 18.3672H18.3494V17.5703H18.1494H17.9494V18.3672H18.1494ZM18.1494 17.5703L18.3494 17.5702C18.3494 17.559 18.3516 17.55 18.3544 17.5434L18.1709 17.4639L17.9874 17.3843C17.9611 17.4451 17.9494 17.5089 17.9494 17.5704L18.1494 17.5703ZM18.1709 17.4639L18.3543 17.5437C18.3585 17.5341 18.3648 17.525 18.3722 17.518L18.2344 17.373L18.0965 17.2281C18.0497 17.2727 18.0127 17.3262 17.9875 17.384L18.1709 17.4639ZM18.2344 17.373L18.3721 17.518C18.3799 17.5106 18.3907 17.5036 18.4033 17.4986L18.3301 17.3125L18.2569 17.1264C18.1983 17.1494 18.1432 17.1838 18.0966 17.228L18.2344 17.373ZM18.3301 17.3125L18.4031 17.4987C18.4131 17.4948 18.4266 17.492 18.4423 17.492L18.4424 17.292L18.4425 17.092C18.3815 17.092 18.3179 17.1025 18.2571 17.1263L18.3301 17.3125ZM18.4424 17.292V17.492H19.2812V17.292V17.092H18.4424V17.292ZM19.2812 17.292H19.4813V11.8545H19.2812H19.0812V17.292H19.2812ZM19.2812 11.8545V11.6545H18.4424V11.8545V12.0545H19.2812V11.8545ZM18.4424 11.8545V11.6545C18.4157 11.6545 18.3905 11.644 18.373 11.6274L18.2354 11.7725L18.0977 11.9175C18.19 12.0051 18.3138 12.0545 18.4424 12.0545V11.8545ZM18.2354 11.7725L18.3731 11.6275C18.3564 11.6116 18.3494 11.5929 18.3494 11.576L18.1494 11.5762L17.9494 11.5764C17.9495 11.7069 18.0046 11.8291 18.0976 11.9175L18.2354 11.7725ZM18.1494 11.5762H18.3494V9.42383H18.1494H17.9494V11.5762H18.1494ZM18.1494 9.42383L18.3494 9.42402C18.3494 9.40713 18.3564 9.38839 18.3731 9.37254L18.2354 9.22754L18.0976 9.08254C18.0046 9.17093 17.9495 9.29311 17.9494 9.42364L18.1494 9.42383ZM18.2354 9.22754L18.373 9.37263C18.3905 9.35599 18.4157 9.34551 18.4424 9.34551L18.4424 9.14551L18.4424 8.94551C18.3138 8.94551 18.19 8.99488 18.0977 9.08245L18.2354 9.22754ZM18.4424 9.14551V9.34551H19.2812V9.14551V8.94551H18.4424V9.14551ZM19.2812 9.14551H19.4813V3.70801H19.2812H19.0812V9.14551H19.2812ZM19.2812 3.70801V3.50801H18.4424V3.70801V3.90801H19.2812V3.70801ZM18.4424 3.70801L18.4423 3.50801C18.4266 3.50802 18.4131 3.50524 18.4031 3.50129L18.3301 3.6875L18.2571 3.87371C18.3179 3.89754 18.3815 3.90804 18.4425 3.90801L18.4424 3.70801ZM18.3301 3.6875L18.4033 3.50137C18.3907 3.49644 18.3799 3.48935 18.3721 3.48195L18.2344 3.62695L18.0966 3.77195C18.1432 3.81623 18.1983 3.85061 18.2569 3.87363L18.3301 3.6875ZM18.2344 3.62695L18.3722 3.48204C18.3648 3.47499 18.3585 3.46592 18.3543 3.45625L18.1709 3.53613L17.9875 3.61601C18.0127 3.67377 18.0497 3.72729 18.0965 3.77186L18.2344 3.62695ZM18.1709 3.53613L18.3544 3.45657C18.3516 3.45004 18.3494 3.44101 18.3494 3.42981L18.1494 3.42969L17.9494 3.42957C17.9494 3.49115 17.9611 3.55494 17.9874 3.6157L18.1709 3.53613ZM18.1494 3.42969H18.3494V2.63281H18.1494H17.9494V3.42969H18.1494ZM18.1494 2.63281V2.43281H12.4258V2.63281V2.83281H18.1494V2.63281ZM12.4258 2.63281H12.2258V3.42969H12.4258H12.6258V2.63281H12.4258ZM12.4258 3.42969H12.2258C12.2258 3.44714 12.2184 3.46649 12.2021 3.48197L12.3398 3.62695L12.4776 3.77194C12.5711 3.68306 12.6258 3.55981 12.6258 3.42969H12.4258ZM12.3398 3.62695L12.2021 3.48195C12.1861 3.49715 12.1614 3.50797 12.1326 3.50801L12.1328 3.70801L12.1331 3.90801C12.2593 3.90785 12.3839 3.86095 12.4776 3.77195L12.3398 3.62695ZM12.1328 3.70801V3.50801H9.86719V3.70801V3.90801H12.1328V3.70801ZM9.86719 3.70801L9.8673 3.50801C9.83871 3.50799 9.81401 3.49724 9.79785 3.4819L9.66016 3.62695L9.52246 3.77201C9.61606 3.86085 9.74051 3.90794 9.86708 3.90801L9.86719 3.70801ZM9.66016 3.62695L9.79791 3.48195C9.78163 3.46649 9.77422 3.44716 9.77422 3.42969H9.57422H9.37422C9.37422 3.5598 9.42883 3.68306 9.52241 3.77195L9.66016 3.62695ZM9.57422 3.42969H9.77422V2.63281H9.57422H9.37422V3.42969H9.57422ZM9.57422 2.63281V2.43281H3.85059V2.63281V2.83281H9.57422V2.63281ZM16.0215 5.13379L16.0213 5.33379C16.05 5.33382 16.0748 5.34465 16.0908 5.35989L16.2285 5.21484L16.3662 5.06979C16.2726 4.98092 16.148 4.93393 16.0217 4.93379L16.0215 5.13379ZM16.2285 5.21484L16.0908 5.35984C16.107 5.37531 16.1145 5.39463 16.1145 5.41211H16.3145H16.5145C16.5145 5.282 16.4598 5.15874 16.3663 5.06984L16.2285 5.21484ZM16.3145 5.41211H16.1145V8.52539H16.3145H16.5145V5.41211H16.3145ZM16.3145 8.52539L16.1145 8.52499C16.1144 8.53779 16.1104 8.55163 16.1015 8.56438L16.2656 8.67871L16.4297 8.79304C16.4841 8.71495 16.5143 8.62193 16.5145 8.52579L16.3145 8.52539ZM16.2656 8.67871L16.1016 8.56422C16.0928 8.57684 16.0788 8.58854 16.0608 8.59581L16.1357 8.78125L16.2107 8.96669C16.2982 8.93131 16.375 8.87141 16.4296 8.7932L16.2656 8.67871ZM16.1357 8.78125L16.0611 8.59571C16.0429 8.60304 16.0219 8.60527 16.0023 8.60183L15.9678 8.79883L15.9332 8.99582C16.0264 9.01216 16.123 9.00197 16.2104 8.96679L16.1357 8.78125ZM15.9678 8.79883L16.0026 8.60188C15.9838 8.59857 15.9661 8.58966 15.9527 8.5773L15.8174 8.72461L15.6821 8.87192C15.7513 8.9355 15.8386 8.97911 15.933 8.99578L15.9678 8.79883ZM15.8174 8.72461L15.9529 8.57748L14.5241 7.26205L14.3887 7.40918L14.2532 7.55631L15.6819 8.87174L15.8174 8.72461ZM14.3887 7.40918V7.20918H12.2109V7.40918V7.60918H14.3887V7.40918ZM12.2109 7.40918H12.0109V13.9531H12.2109H12.4109V7.40918H12.2109ZM12.2109 13.9531L12.0428 14.0614L13.0018 15.5507L13.1699 15.4424L13.3381 15.3341L12.3791 13.8448L12.2109 13.9531ZM13.1699 15.4424L13.0017 15.5505C13.0089 15.5617 13.0127 15.5747 13.0129 15.5869L13.2129 15.583L13.4129 15.5791C13.4112 15.4925 13.3852 15.4074 13.3382 15.3342L13.1699 15.4424ZM13.2129 15.583L13.0129 15.5866C13.0131 15.5963 13.0105 15.6086 13.0026 15.622L13.1748 15.7236L13.3471 15.8253C13.3899 15.7527 13.4145 15.6682 13.4129 15.5794L13.2129 15.583ZM13.1748 15.7236L13.0026 15.622C12.9952 15.6345 12.984 15.6457 12.9701 15.6534L13.0674 15.8281L13.1647 16.0029C13.2406 15.9606 13.3035 15.899 13.347 15.8253L13.1748 15.7236ZM13.0674 15.8281L12.9704 15.6532C12.9554 15.6615 12.9378 15.6662 12.9198 15.6662L12.9199 15.8662L12.9201 16.0662C13.0056 16.0661 13.0899 16.0443 13.1644 16.003L13.0674 15.8281ZM12.9199 15.8662V15.6662H9.08105V15.8662V16.0662H12.9199V15.8662ZM9.08105 15.8662L9.08112 15.6662C9.06213 15.6662 9.04418 15.6613 9.02989 15.6534L8.93262 15.8281L8.83535 16.0029C8.91081 16.0449 8.99595 16.0662 9.08099 16.0662L9.08105 15.8662ZM8.93262 15.8281L9.02992 15.6534C9.01605 15.6457 9.0048 15.6344 8.99742 15.622L8.8252 15.7236L8.65297 15.8253C8.69647 15.899 8.75946 15.9606 8.83532 16.0029L8.93262 15.8281ZM8.8252 15.7236L8.99754 15.6222C8.99093 15.6109 8.98784 15.5987 8.98805 15.5866L8.78809 15.583L8.58812 15.5794C8.58657 15.6656 8.60894 15.7505 8.65285 15.8251L8.8252 15.7236ZM8.78809 15.583L8.98805 15.5869C8.98829 15.5747 8.9921 15.5617 8.9993 15.5505L8.83105 15.4424L8.66281 15.3342C8.6158 15.4074 8.58981 15.4925 8.58812 15.5791L8.78809 15.583ZM8.83105 15.4424L8.99926 15.5506L9.95727 14.0613L9.78906 13.9531L9.62086 13.8449L8.66285 15.3342L8.83105 15.4424ZM9.78906 13.9531H9.98906V7.40918H9.78906H9.58906V13.9531H9.78906ZM9.78906 7.40918V7.20918H7.6123V7.40918V7.60918H9.78906V7.40918ZM7.6123 7.40918L7.47684 7.26205L6.04813 8.57748L6.18359 8.72461L6.31906 8.87174L7.74777 7.55631L7.6123 7.40918ZM6.18359 8.72461L6.04831 8.5773C6.03486 8.58966 6.01715 8.59857 5.9984 8.60188L6.0332 8.79883L6.06801 8.99578C6.16233 8.97911 6.24963 8.9355 6.31887 8.87192L6.18359 8.72461ZM6.0332 8.79883L5.99841 8.60188C5.97899 8.60531 5.95842 8.60316 5.93989 8.59571L5.86523 8.78125L5.79058 8.96679C5.87796 9.00195 5.97434 9.01233 6.068 8.99578L6.0332 8.79883ZM5.86523 8.78125L5.93991 8.59572C5.9221 8.58855 5.90833 8.5771 5.89934 8.56422L5.73535 8.67871L5.57136 8.7932C5.62594 8.87137 5.70249 8.93134 5.79056 8.96678L5.86523 8.78125ZM5.73535 8.67871L5.89935 8.56424C5.89055 8.55162 5.88655 8.53799 5.88652 8.52499L5.68652 8.52539L5.48652 8.52579C5.48672 8.62189 5.51669 8.71487 5.57135 8.79318L5.73535 8.67871ZM5.68652 8.52539H5.88652V5.41211H5.68652H5.48652V8.52539H5.68652ZM5.68652 5.41211H5.88652C5.88652 5.39463 5.89393 5.37531 5.91021 5.35984L5.77246 5.21484L5.63471 5.06984C5.54114 5.15874 5.48652 5.282 5.48652 5.41211H5.68652ZM5.77246 5.21484L5.91 5.36004C5.92641 5.3445 5.95125 5.33379 5.97949 5.33379V5.13379V4.93379C5.85266 4.93379 5.7283 4.98119 5.63492 5.06965L5.77246 5.21484ZM5.97949 5.13379V5.33379H16.0215V5.13379V4.93379H5.97949V5.13379ZM6.27246 5.69043H6.07246V7.86816H6.27246H6.47246V5.69043H6.27246ZM6.27246 7.86816L6.4079 8.01532L7.42548 7.0788L7.29004 6.93164L7.1546 6.78448L6.13702 7.721L6.27246 7.86816ZM7.29004 6.93164L7.42542 7.07885C7.44205 7.06356 7.46618 7.05351 7.49314 7.05352L7.49316 6.85352L7.49319 6.65352C7.36848 6.6535 7.24699 6.69951 7.15466 6.78443L7.29004 6.93164ZM7.49316 6.85352V7.05352H10.082V6.85352V6.65352H7.49316V6.85352ZM10.082 6.85352L10.0819 7.05352C10.1105 7.05354 10.1352 7.06432 10.1514 7.07965L10.2891 6.93457L10.4267 6.78949C10.3332 6.7007 10.2087 6.65361 10.0822 6.65352L10.082 6.85352ZM10.2891 6.93457L10.1513 7.07957C10.1676 7.09504 10.175 7.11436 10.175 7.13184H10.375H10.575C10.575 7.00172 10.5204 6.87847 10.4268 6.78957L10.2891 6.93457ZM10.375 7.13184H10.175V14.0322H10.375H10.575V7.13184H10.375ZM10.375 14.0322L10.175 14.0322C10.175 14.0437 10.1716 14.0564 10.1637 14.0687L10.332 14.1768L10.5003 14.2848C10.5483 14.2101 10.575 14.1227 10.575 14.0323L10.375 14.0322ZM10.332 14.1768L10.1638 14.0685L9.43435 15.2023L9.60254 15.3105L9.77073 15.4188L10.5002 14.285L10.332 14.1768ZM9.60254 15.3105V15.5105H12.3975V15.3105V15.1105H9.60254V15.3105ZM12.3975 15.3105L12.5657 15.2024L11.8372 14.0686L11.6689 14.1768L11.5007 14.2849L12.2292 15.4187L12.3975 15.3105ZM11.6689 14.1768L11.8371 14.0685C11.8293 14.0564 11.826 14.044 11.826 14.0322L11.626 14.0322L11.426 14.0323C11.426 14.1226 11.4524 14.2099 11.5008 14.285L11.6689 14.1768ZM11.626 14.0322H11.826V7.13184H11.626H11.426V14.0322H11.626ZM11.626 7.13184H11.826C11.826 7.11259 11.8337 7.0938 11.8487 7.07957L11.7109 6.93457L11.5732 6.78957C11.4783 6.8797 11.426 7.00349 11.426 7.13184H11.626ZM11.7109 6.93457L11.8487 7.07957C11.8646 7.06442 11.8894 7.05356 11.9183 7.05352L11.918 6.85352L11.9177 6.65352C11.7915 6.6537 11.6669 6.70056 11.5732 6.78957L11.7109 6.93457ZM11.918 6.85352V7.05352H14.5068V6.85352V6.65352H11.918V6.85352ZM14.5068 6.85352L14.507 7.05352C14.5348 7.05349 14.5593 7.06387 14.5754 7.0787L14.7109 6.93164L14.8465 6.78458C14.7535 6.69885 14.6309 6.65342 14.5067 6.65352L14.5068 6.85352ZM14.7109 6.93164L14.5755 7.0788L15.5931 8.01532L15.7285 7.86816L15.864 7.721L14.8464 6.78448L14.7109 6.93164ZM15.7285 7.86816H15.9285V5.69043H15.7285H15.5285V7.86816H15.7285ZM15.7285 5.69043V5.49043H6.27246V5.69043V5.89043H15.7285V5.69043ZM1.58594 9.70215H1.38594V11.2979H1.58594H1.78594V9.70215H1.58594ZM1.58594 11.2979V11.4979H3.26465V11.2979V11.0979H1.58594V11.2979ZM3.26465 11.2979H3.46465V9.70215H3.26465H3.06465V11.2979H3.26465ZM3.26465 9.70215V9.50215H1.58594V9.70215V9.90215H3.26465V9.70215ZM18.7354 9.70215H18.5354V11.2979H18.7354H18.9354V9.70215H18.7354ZM18.7354 11.2979V11.4979H20.4141V11.2979V11.0979H18.7354V11.2979ZM20.4141 11.2979H20.6141V9.70215H20.4141H20.2141V11.2979H20.4141ZM20.4141 9.70215V9.50215H18.7354V9.70215V9.90215H20.4141V9.70215ZM1.58594 1.55664H1.38594V3.15137H1.58594H1.78594V1.55664H1.58594ZM1.58594 3.15137V3.35137H3.26465V3.15137V2.95137H1.58594V3.15137ZM3.26465 3.15137H3.46465V1.55664H3.26465H3.06465V3.15137H3.26465ZM3.26465 1.55664V1.35664H1.58594V1.55664V1.75664H3.26465V1.55664ZM10.1602 1.55664H9.96016V3.15137H10.1602H10.3602V1.55664H10.1602ZM10.1602 3.15137V3.35137H11.8398V3.15137V2.95137H10.1602V3.15137ZM11.8398 3.15137H12.0398V1.55664H11.8398H11.6398V3.15137H11.8398ZM11.8398 1.55664V1.35664H10.1602V1.55664V1.75664H11.8398V1.55664ZM18.7354 1.55664H18.5354V3.15137H18.7354H18.9354V1.55664H18.7354ZM18.7354 3.15137V3.35137H20.4141V3.15137V2.95137H18.7354V3.15137ZM20.4141 3.15137H20.6141V1.55664H20.4141H20.2141V3.15137H20.4141ZM20.4141 1.55664V1.35664H18.7354V1.55664V1.75664H20.4141V1.55664Z" fill="#8043EB" mask="url(#path-1-outside-1_849_129)"/>
</svg>
