<svg width="15" height="14" viewBox="0 0 15 14" fill="none" xmlns="http://www.w3.org/2000/svg">
<path fill-rule="evenodd" clip-rule="evenodd" d="M2.31445 4H12.9811V12.6667C12.9811 13.0349 12.6826 13.3333 12.3145 13.3333H2.98112C2.61293 13.3333 2.31445 13.0349 2.31445 12.6667V4ZM4.3138 2V0.666667C4.3138 0.298477 4.61228 0 4.98047 0H10.3138C10.682 0 10.9805 0.298477 10.9805 0.666667V2H14.3138V3.33333H0.980469V2H4.3138ZM5.64648 1.33325V1.99992H9.64648V1.33325H5.64648ZM5.64648 6.66675V10.6667H6.97982V6.66675H5.64648ZM8.31445 6.66675V10.6667H9.64779V6.66675H8.31445Z" fill="#F06548"/>
</svg>
