<svg width="15" height="15" viewBox="0 0 15 15" fill="none" xmlns="http://www.w3.org/2000/svg">
<path d="M11.9316 0C12.0222 0 12.1089 0.0357668 12.1729 0.0996094L14.9004 2.82715C14.9642 2.89105 15 2.97789 15 3.06836V13.6367C14.9998 14.3885 14.3882 14.9998 13.6367 15H1.36328C0.611834 14.9998 0.00019754 14.3885 0 13.6367V1.36328C0.000197273 0.611482 0.611833 0.000197252 1.36328 0H11.9316ZM1.36328 0.681641C0.987398 0.681838 0.681838 0.987717 0.681641 1.36328V13.6367C0.681837 14.0123 0.987366 14.3182 1.36328 14.3184H2.0459V7.84082C2.04593 7.65241 2.1983 7.5 2.38672 7.5H12.6133C12.8017 7.5 12.9541 7.65241 12.9541 7.84082V14.3184H13.6367C14.0126 14.3182 14.3182 14.0123 14.3184 13.6367V3.20898L11.791 0.681641H11.5908V4.77246C11.5908 5.52445 10.9791 6.13657 10.2275 6.13672H4.09082C3.33912 6.13667 2.72751 5.52449 2.72754 4.77246V0.681641H1.36328ZM2.72754 14.3184H12.2725V8.18164H2.72754V14.3184ZM3.40918 4.77246C3.40918 5.14829 3.71466 5.45406 4.09082 5.4541H10.2275C10.6036 5.45397 10.9092 5.14823 10.9092 4.77246V0.681641H3.40918V4.77246ZM9.88574 1.36328C10.074 1.36328 10.2273 1.51586 10.2275 1.7041V4.43164C10.2274 4.61999 10.0741 4.77246 9.88574 4.77246H8.52246C8.33421 4.77232 8.18174 4.61991 8.18164 4.43164V1.7041C8.18187 1.51595 8.33429 1.36342 8.52246 1.36328H9.88574ZM8.86328 4.09082H9.54492V2.04492H8.86328V4.09082Z" fill="#71717A"/>
</svg>
