<?xml version="1.0" encoding="UTF-8"?>
<svg width="234px" height="50px" viewBox="0 0 234 50" version="1.1" xmlns="http://www.w3.org/2000/svg" xmlns:xlink="http://www.w3.org/1999/xlink">
    <title>logo-blanco</title>
    <defs>
        <polygon id="path-1" points="0 0 71.7741935 0 71.7741935 8.87096774 0 8.87096774"></polygon>
        <polygon id="path-3" points="0 0 71.7741935 0 71.7741935 8.87096774 0 8.87096774"></polygon>
        <polygon id="path-5" points="0 0 71.7741935 0 71.7741935 8.87096774 0 8.87096774"></polygon>
    </defs>
    <g id="DISEÑO-WEB" stroke="none" stroke-width="1" fill="none" fill-rule="evenodd">
        <g id="Home-0" transform="translate(-30.000000, -21.000000)">
            <g id="logo-blanco" transform="translate(30.000000, 21.000000)">
                <path d="M54.0322581,42.7419355 L54.0322581,50 L57.2029511,50 C59.6294802,50 61.2903226,48.5172949 61.2903226,46.3709572 C61.2903226,44.2143048 59.6510694,42.7419355 57.2784469,42.7419355 L54.0322581,42.7419355 Z M55.9519275,44.2143048 L57.2352907,44.2143048 C58.4539746,44.2143048 59.3383135,45.0956041 59.3383135,46.3813142 C59.3383135,47.6566672 58.4971088,48.5276307 57.3215811,48.5276307 L55.9519275,48.5276307 L55.9519275,44.2143048 Z" id="Fill-1" fill="#FFFFFF"></path>
                <polygon id="Fill-3" fill="#FFFFFF" points="68.4373025 44.1935314 68.4373025 42.7419355 62.9032258 42.7419355 62.9032258 50 68.5483871 50 68.5483871 48.548404 64.7007956 48.548404 64.7007956 47.0863875 68.0737453 47.0863875 68.0737453 45.6347915 64.7007956 45.6347915 64.7007956 44.1935314"></polygon>
                <path d="M77.6559236,42.7419355 C75.8494526,42.7419355 74.6559232,43.5755127 74.6559232,44.8868643 C74.6559232,47.4078415 78.6344204,46.6556203 78.6344204,47.9161193 C78.6344204,48.3227332 78.2580806,48.5361733 77.6559236,48.5361733 C76.870978,48.5361733 75.7096925,48.1092308 74.9355095,47.4688481 L74.1935484,48.8614935 C75.0860322,49.5527289 76.3763372,50 77.6344203,50 C79.3118278,50 80.6451613,49.247758 80.6451613,47.8246094 C80.6451613,45.2527795 76.6666861,45.9541688 76.6666861,44.7241731 C76.6666861,44.378545 77.0000194,44.2057622 77.4946162,44.2057622 C78.1075358,44.2057622 79.1075359,44.510733 79.9032441,44.9477879 L80.623658,43.5348762 C79.849475,43.0570602 78.7419367,42.7419355 77.6559236,42.7419355" id="Fill-5" fill="#FFFFFF"></path>
                <path d="M86.7865933,48.6624374 L87.3552815,50 L89.516129,50 L86.1610806,42.7419355 L84.0798247,42.7419355 L80.6451613,50 L82.7264171,50 L83.3064656,48.6624374 L86.7865933,48.6624374 Z M86.1952079,47.2626902 L83.897851,47.2626902 L85.0579014,44.5771657 L86.1952079,47.2626902 Z" id="Fill-7" fill="#FFFFFF"></path>
                <polygon id="Fill-9" fill="#FFFFFF" points="97.5806452 50 97.5806452 42.7419355 95.7155749 42.7419355 95.7155749 47.2211854 92.0865541 42.7419355 90.3225806 42.7419355 90.3225806 50 92.1988967 50 92.1988967 45.5311282 95.8166947 50"></polygon>
                <polygon id="Fill-11" fill="#FFFFFF" points="105.645161 44.2328701 105.645161 42.7419355 99.1935484 42.7419355 99.1935484 44.2328701 101.44834 44.2328701 101.44834 50 103.368728 50 103.368728 44.2328701"></polygon>
                <path d="M111.285002,42.7419355 C108.983892,42.7419355 107.258065,44.2769227 107.258065,46.3506495 C107.258065,48.4345302 108.983892,50 111.285002,50 C113.596753,50 115.322581,48.4243763 115.322581,46.3506495 C115.322581,44.2870559 113.596753,42.7419355 111.285002,42.7419355 M111.306306,44.2565526 C112.456872,44.2565526 113.373025,45.1612903 113.373025,46.3607827 C113.373025,47.5602958 112.456872,48.4853414 111.306306,48.4853414 C110.166403,48.4853414 109.196957,47.5602958 109.196957,46.3607827 C109.196957,45.1612903 110.15574,44.2565526 111.306306,44.2565526" id="Fill-13" fill="#FFFFFF"></path>
                <path d="M120.16129,42.7419355 L120.16129,50 L123.331983,50 C125.758513,50 127.419355,48.5172949 127.419355,46.3709572 C127.419355,44.2143048 125.780102,42.7419355 123.407457,42.7419355 L120.16129,42.7419355 Z M122.08096,44.2143048 L123.364323,44.2143048 C124.583007,44.2143048 125.467324,45.0956041 125.467324,46.3813142 C125.467324,47.6566672 124.626141,48.5276307 123.450591,48.5276307 L122.08096,48.5276307 L122.08096,44.2143048 Z" id="Fill-15" fill="#FFFFFF"></path>
                <path d="M133.059217,42.7419355 C130.758085,42.7419355 129.032258,44.2769227 129.032258,46.3506495 C129.032258,48.4345302 130.758085,50 133.059217,50 C135.370947,50 137.096774,48.4243763 137.096774,46.3506495 C137.096774,44.2870559 135.370947,42.7419355 133.059217,42.7419355 M133.080522,44.2565526 C134.231066,44.2565526 135.147219,45.1612903 135.147219,46.3607827 C135.147219,47.5602958 134.231066,48.4853414 133.080522,48.4853414 C131.940619,48.4853414 130.971172,47.5602958 130.971172,46.3607827 C130.971172,45.1612903 131.929934,44.2565526 133.080522,44.2565526" id="Fill-17" fill="#FFFFFF"></path>
                <polygon id="Fill-19" fill="#FFFFFF" points="146.774194 50 146.774194 42.7419355 144.739706 42.7419355 142.747184 47.0594786 140.75464 42.7419355 138.709677 42.7419355 138.709677 50 140.377103 50 140.377103 45.2889858 142.138913 49.275196 143.355411 49.275196 145.117243 45.2889858 145.127718 50"></polygon>
                <polygon id="Fill-21" fill="#FFFFFF" points="149.193548 50 150.806452 50 150.806452 42.7419355 149.193548 42.7419355"></polygon>
                <polygon id="Fill-23" fill="#FFFFFF" points="161.290323 50 161.290323 42.7419355 159.425246 42.7419355 159.425246 47.2211854 155.796214 42.7419355 154.032258 42.7419355 154.032258 50 155.90858 50 155.90858 45.5311282 159.526389 50"></polygon>
                <path d="M167.615958,46.2997968 L167.615958,48.1397133 C167.162309,48.353195 166.665505,48.4853414 166.276653,48.4853414 C165.023766,48.4853414 164.062523,47.5704497 164.062523,46.3608034 C164.062523,45.1714442 165.012999,44.2565733 166.255053,44.2565733 C166.957105,44.2565733 167.723977,44.5513902 168.27479,45.0291647 L169.354839,43.7991483 C168.577201,43.1485494 167.389134,42.7419355 166.265864,42.7419355 C163.878897,42.7419355 162.096774,44.2972306 162.096774,46.3608034 C162.096774,48.434551 163.835677,50 166.136269,50 C167.194719,50 168.469205,49.6136939 169.279275,49.0749336 L169.279275,46.2997968 L167.615958,46.2997968 Z" id="Fill-24" fill="#FFFFFF"></path>
                <path d="M174.99469,42.7419355 C172.693586,42.7419355 170.967742,44.2769227 170.967742,46.3506495 C170.967742,48.4345302 172.693586,50 174.99469,50 C177.306436,50 179.032258,48.4243763 179.032258,46.3506495 C179.032258,44.2870559 177.306436,42.7419355 174.99469,42.7419355 M175.015995,44.2565526 C176.166557,44.2565526 177.082708,45.1612903 177.082708,46.3607827 C177.082708,47.5602958 176.166557,48.4853414 175.015995,48.4853414 C173.876116,48.4853414 172.906651,47.5602958 172.906651,46.3607827 C172.906651,45.1612903 173.865432,44.2565526 175.015995,44.2565526" id="Fill-25" fill="#FFFFFF"></path>
                <path d="M0,4.83870968 L0,16.1290323 L4.93216751,16.1290323 C8.70680843,16.1290323 11.2903226,13.8225724 11.2903226,10.4838382 C11.2903226,7.12903918 8.74034051,4.83870968 5.04960926,4.83870968 L0,4.83870968 Z M2.98614887,7.12903918 L4.98249968,7.12903918 C6.87820884,7.12903918 8.25384153,8.49998463 8.25384153,10.4999685 C8.25384153,12.4838876 6.94529571,13.8387028 5.11671883,13.8387028 L2.98614887,13.8387028 L2.98614887,7.12903918 Z" id="Fill-26" fill="#FFFFFF"></path>
                <polygon id="Fill-27" fill="#FFFFFF" points="23.2125419 7.09675673 23.2125419 4.83870968 14.516129 4.83870968 14.516129 16.1290323 23.3870968 16.1290323 23.3870968 13.8709415 17.3408778 13.8709415 17.3408778 11.5967642 22.6412439 11.5967642 22.6412439 9.33871713 17.3408778 9.33871713 17.3408778 7.09675673"></polygon>
                <path d="M26.6129032,4.83870968 L26.6129032,16.1290323 L29.5474375,16.1290323 L29.5474375,12.9516011 L31.6412195,12.9516011 C34.5922412,12.9516011 36.2903226,11.4193526 36.2903226,8.77419991 C36.2903226,6.25806788 34.5922412,4.83870968 31.6412195,4.83870968 L26.6129032,4.83870968 Z M29.5474375,7.09675673 L31.4928317,7.09675673 C32.7787472,7.09675673 33.5206413,7.69353457 33.5206413,8.87098177 C33.5206413,10.0644938 32.7787472,10.6935323 31.4928317,10.6935323 L29.5474375,10.6935323 L29.5474375,7.09675673 Z" id="Fill-28" fill="#FFFFFF"></path>
                <path d="M45.5565148,4.83870968 C42.1048534,4.83870968 39.516129,7.22643645 39.516129,10.4522429 C39.516129,13.6938634 42.1048534,16.1290323 45.5565148,16.1290323 C49.0241572,16.1290323 51.6129032,13.6780493 51.6129032,10.4522429 C51.6129032,7.24222908 49.0241572,4.83870968 45.5565148,4.83870968 M45.588477,7.19482977 C47.314286,7.19482977 48.6885754,8.60215054 48.6885754,10.4680355 C48.6885754,12.3339847 47.314286,13.7729336 45.588477,13.7729336 C43.8786274,13.7729336 42.4244541,12.3339847 42.4244541,10.4680355 C42.4244541,8.60215054 43.8626247,7.19482977 45.588477,7.19482977" id="Fill-29" fill="#FFFFFF"></path>
                <path d="M59.2258017,4.83870968 C56.5161287,4.83870968 54.7257957,6.13539148 54.7257957,8.17522313 C54.7257957,12.0967681 60.6935504,10.9266195 60.6935504,12.8874455 C60.6935504,13.5199403 60.1290333,13.8520124 59.2258017,13.8520124 C58.0483986,13.8520124 56.3064565,13.1878468 55.14514,12.1916519 L54.0322581,14.357974 C55.3709643,15.4332387 57.3064482,16.1290323 59.1935411,16.1290323 C61.7096942,16.1290323 63.7096774,14.9588837 63.7096774,12.7450769 C63.7096774,8.74448345 57.7419446,9.83554077 57.7419446,7.92219952 C57.7419446,7.38456715 58.2419186,7.11577236 58.983869,7.11577236 C59.9032309,7.11577236 61.4032183,7.59014883 62.5967736,8.27006418 L63.6774386,6.07211417 C62.5161221,5.32892152 60.8548316,4.83870968 59.2258017,4.83870968" id="Fill-30" fill="#FFFFFF"></path>
                <polygon id="Fill-31" fill="#FFFFFF" points="66.9354839 16.1290323 70.1612903 16.1290323 70.1612903 4.83870968 66.9354839 4.83870968"></polygon>
                <polygon id="Fill-32" fill="#FFFFFF" points="83.0645161 7.15800361 83.0645161 4.83870968 73.3870968 4.83870968 73.3870968 7.15800361 76.7693361 7.15800361 76.7693361 16.1290323 79.6499084 16.1290323 79.6499084 7.15800361"></polygon>
                <path d="M91.5242783,4.83870968 C88.072617,4.83870968 85.483871,7.22643645 85.483871,10.4522429 C85.483871,13.6938634 88.072617,16.1290323 91.5242783,16.1290323 C94.9918992,16.1290323 97.5806452,13.6780493 97.5806452,10.4522429 C97.5806452,7.24222908 94.9918992,4.83870968 91.5242783,4.83870968 M91.5562189,7.19482977 C93.2820496,7.19482977 94.656339,8.60215054 94.656339,10.4680355 C94.656339,12.3339847 93.2820496,13.7729336 91.5562189,13.7729336 C89.846391,13.7729336 88.3922177,12.3339847 88.3922177,10.4680355 C88.3922177,8.60215054 89.8303883,7.19482977 91.5562189,7.19482977" id="Fill-33" fill="#FFFFFF"></path>
                <path d="M105.193544,4.83870968 C102.483871,4.83870968 100.693538,6.13539148 100.693538,8.17522313 C100.693538,12.0967681 106.661292,10.9266195 106.661292,12.8874455 C106.661292,13.5199403 106.096775,13.8520124 105.193544,13.8520124 C104.01614,13.8520124 102.274198,13.1878468 101.112882,12.1916519 L100,14.357974 C101.338728,15.4332387 103.27419,16.1290323 105.161305,16.1290323 C107.677436,16.1290323 109.677419,14.9588837 109.677419,12.7450769 C109.677419,8.74448345 103.709687,9.83554077 103.709687,7.92219952 C103.709687,7.38456715 104.209661,7.11577236 104.951633,7.11577236 C105.870973,7.11577236 107.37096,7.59014883 108.564516,8.27006418 L109.645181,6.07211417 C108.483864,5.32892152 106.822574,4.83870968 105.193544,4.83870968" id="Fill-34" fill="#FFFFFF"></path>
                <polygon id="Fill-35" fill="#FFFFFF" points="121.268241 13.7258124 121.268241 4.83870968 118.548387 4.83870968 118.548387 16.1290323 125.806452 16.1290323 125.806452 13.7258124"></polygon>
                <path d="M135.072644,4.83870968 C131.621004,4.83870968 129.032258,7.22643645 129.032258,10.4522429 C129.032258,13.6938634 131.621004,16.1290323 135.072644,16.1290323 C138.540286,16.1290323 141.129032,13.6780493 141.129032,10.4522429 C141.129032,7.24222908 138.540286,4.83870968 135.072644,4.83870968 M135.104606,7.19482977 C136.830415,7.19482977 138.204704,8.60215054 138.204704,10.4680355 C138.204704,12.3339847 136.830415,13.7729336 135.104606,13.7729336 C133.394756,13.7729336 131.940583,12.3339847 131.940583,10.4680355 C131.940583,8.60215054 133.378775,7.19482977 135.104606,7.19482977" id="Fill-36" fill="#FFFFFF"></path>
                <path d="M152.133717,10.3731513 L152.133717,13.2352992 C151.428087,13.5673511 150.655249,13.7729336 150.050387,13.7729336 C148.101477,13.7729336 146.606206,12.3497774 146.606206,10.4680355 C146.606206,8.61796457 148.084674,7.19480837 150.016806,7.19480837 C151.108866,7.19480837 152.30174,7.65337261 153.158591,8.39656808 L154.83871,6.48321957 C153.62901,5.4712283 151.780891,4.83870968 150.033608,4.83870968 C146.320566,4.83870968 143.548387,7.25804312 143.548387,10.4680355 C143.548387,13.693842 146.25338,16.1290323 149.832003,16.1290323 C151.478494,16.1290323 153.460987,15.5281631 154.721093,14.6900834 L154.721093,10.3731513 L152.133717,10.3731513 Z" id="Fill-37" fill="#FFFFFF"></path>
                <polygon id="Fill-38" fill="#FFFFFF" points="158.064516 16.1290323 161.290323 16.1290323 161.290323 4.83870968 158.064516 4.83870968"></polygon>
                <path d="M169.709661,4.83870968 C166.999994,4.83870968 165.209687,6.13539148 165.209687,8.17522313 C165.209687,12.0967681 171.177406,10.9266195 171.177406,12.8874455 C171.177406,13.5199403 170.612912,13.8520124 169.709661,13.8520124 C168.532282,13.8520124 166.790322,13.1878468 165.62903,12.1916519 L164.516129,14.357974 C165.854854,15.4332387 167.790312,16.1290323 169.677422,16.1290323 C172.193548,16.1290323 174.193548,14.9588837 174.193548,12.7450769 C174.193548,8.74448345 168.225807,9.83554077 168.225807,7.92219952 C168.225807,7.38456715 168.725802,7.11577236 169.467751,7.11577236 C170.387089,7.11577236 171.887095,7.59014883 173.080625,8.27006418 L174.161288,6.07211417 C172.999974,5.32892152 171.338709,4.83870968 169.709661,4.83870968" id="Fill-39" fill="#FFFFFF"></path>
                <polygon id="Fill-40" fill="#FFFFFF" points="186.290323 7.15800361 186.290323 4.83870968 176.612903 4.83870968 176.612903 7.15800361 179.995143 7.15800361 179.995143 16.1290323 182.875693 16.1290323 182.875693 7.15800361"></polygon>
                <polygon id="Fill-41" fill="#FFFFFF" points="189.516129 16.1290323 192.741935 16.1290323 192.741935 4.83870968 189.516129 4.83870968"></polygon>
                <path d="M201.935731,4.83870968 C198.53685,4.83870968 195.967742,7.24222908 195.967742,10.4364289 C195.967742,13.6780493 198.472995,16.1290323 201.83998,16.1290323 C203.483566,16.1290323 205.254841,15.322602 206.451613,14.1050069 L204.792069,12.3655914 C204.010172,13.156229 202.925065,13.6622353 201.983584,13.6622353 C200.212353,13.6622353 198.871955,12.2548931 198.871955,10.4048222 C198.871955,8.5863365 200.212353,7.19482977 201.983584,7.19482977 C202.97294,7.19482977 204.058004,7.74825682 204.792069,8.63375721 L206.435633,6.70459467 C205.318631,5.56606971 203.595275,4.83870968 201.935731,4.83870968" id="Fill-42" fill="#FFFFFF"></path>
                <path d="M214.911332,4.83870968 C211.45968,4.83870968 208.870968,7.22643645 208.870968,10.4522429 C208.870968,13.6938634 211.45968,16.1290323 214.911332,16.1290323 C218.378987,16.1290323 220.967742,13.6780493 220.967742,10.4522429 C220.967742,7.24222908 218.378987,4.83870968 214.911332,4.83870968 M214.943316,7.19482977 C216.669153,7.19482977 218.043404,8.60215054 218.043404,10.4680355 C218.043404,12.3339847 216.669153,13.7729336 214.943316,13.7729336 C213.23346,13.7729336 211.77926,12.3339847 211.77926,10.4680355 C211.77926,8.60215054 213.217501,7.19482977 214.943316,7.19482977" id="Fill-43" fill="#FFFFFF"></path>
                <path d="M228.58063,4.83870968 C225.870929,4.83870968 224.080636,6.13539148 224.080636,8.17522313 C224.080636,12.0967681 230.048404,10.9266195 230.048404,12.8874455 C230.048404,13.5199403 229.483864,13.8520124 228.58063,13.8520124 C227.403203,13.8520124 225.661257,13.1878468 224.500003,12.1916519 L223.387097,14.357974 C224.725806,15.4332387 226.661294,16.1290323 228.548391,16.1290323 C231.064528,16.1290323 233.064516,14.9588837 233.064516,12.7450769 C233.064516,8.74448345 227.096792,9.83554077 227.096792,7.92219952 C227.096792,7.38456715 227.596767,7.11577236 228.338719,7.11577236 C229.258039,7.11577236 230.758074,7.59014883 231.95161,8.27006418 L233.032277,6.07211417 C231.870958,5.32892152 230.209686,4.83870968 228.58063,4.83870968" id="Fill-44" fill="#FFFFFF"></path>
                <g id="Group-48" transform="translate(7.258065, 23.387097)">
                    <mask id="mask-2" fill="white">
                        <use xlink:href="#path-1"></use>
                    </mask>
                    <g id="Clip-47"></g>
                    <polygon id="Fill-46" fill="#FFFFFF" mask="url(#mask-2)" points="0 8.87096774 71.7741935 8.87096774 71.7741935 -2.20324459e-05 0 -2.20324459e-05"></polygon>
                </g>
                <g id="Group-51" transform="translate(80.645161, 23.387097)">
                    <mask id="mask-4" fill="white">
                        <use xlink:href="#path-3"></use>
                    </mask>
                    <g id="Clip-50"></g>
                    <polygon id="Fill-49" fill="#FFFFFF" mask="url(#mask-4)" points="0 8.87096774 71.7742373 8.87096774 71.7742373 -2.20324459e-05 0 -2.20324459e-05"></polygon>
                </g>
                <g id="Group-54" transform="translate(154.032258, 23.387097)">
                    <mask id="mask-6" fill="white">
                        <use xlink:href="#path-5"></use>
                    </mask>
                    <g id="Clip-53"></g>
                    <polygon id="Fill-52" fill="#FFFFFF" mask="url(#mask-6)" points="0 8.87096774 71.7742154 8.87096774 71.7742154 -2.20324459e-05 0 -2.20324459e-05"></polygon>
                </g>
                <polygon id="Fill-55" fill="#FFFFFF" points="50 0.792088624 47.5991149 0 45.9677419 2.41935484 47.9992729 2.41935484"></polygon>
                <polygon id="Fill-57" fill="#FFFFFF" points="162.903226 0.792088624 160.502341 0 158.870968 2.41935484 160.902478 2.41935484"></polygon>
            </g>
        </g>
    </g>
</svg>